STARTFONT 2.1
FONT -FontForge-Logisoso-Medium-R-Normal--64-610-75-75-P-293-ISO10646-1
SIZE 61 75 75
FONTBOUNDINGBOX 173 65 -5 -11
COMMENT "Generated by fontforge, http://fontforge.sourceforge.net"
COMMENT "Created by Mathieu Gabiot with FontForge 2.0 (http://fontforge.sf.net) - Brussels - 2009"
STARTPROPERTIES 40
FOUNDRY "FontForge"
FAMILY_NAME "Logisoso"
WEIGHT_NAME "Medium"
SLANT "R"
SETWIDTH_NAME "Normal"
ADD_STYLE_NAME ""
PIXEL_SIZE 64
POINT_SIZE 610
RESOLUTION_X 75
RESOLUTION_Y 75
SPACING "P"
AVERAGE_WIDTH 293
CHARSET_REGISTRY "ISO10646"
CHARSET_ENCODING "1"
FONTNAME_REGISTRY ""
CHARSET_COLLECTIONS "ISO8859-2 ISO8859-9 ISO8859-4 ISO10646-1"
FONT_NAME "Logisoso"
FACE_NAME "Logisoso"
COPYRIGHT "Created by Mathieu Gabiot with FontForge 2.0 (http://fontforge.sf.net) - Brussels - 2009"
FONT_VERSION "1.0"
FONT_ASCENT 51
FONT_DESCENT 13
UNDERLINE_POSITION -22
UNDERLINE_THICKNESS 4
X_HEIGHT 33
CAP_HEIGHT 44
RAW_ASCENT 800
RAW_DESCENT 200
NORM_SPACE 29
RELATIVE_WEIGHT 50
RELATIVE_SETWIDTH 30
SUPERSCRIPT_X 0
SUPERSCRIPT_Y 30
SUPERSCRIPT_SIZE 44
SUBSCRIPT_X 0
SUBSCRIPT_Y 8
SUBSCRIPT_SIZE 44
FIGURE_WIDTH 29
AVG_LOWERCASE_WIDTH 288
AVG_UPPERCASE_WIDTH 289
ENDPROPERTIES
CHARS 513
STARTCHAR uni001E
ENCODING 30
SWIDTH 450 0
DWIDTH 29 0
BBX 1 1 0 0
BITMAP
00
ENDCHAR
STARTCHAR uni001F
ENCODING 31
SWIDTH 450 0
DWIDTH 29 0
BBX 1 1 0 0
BITMAP
00
ENDCHAR
STARTCHAR space
ENCODING 32
SWIDTH 450 0
DWIDTH 29 0
BBX 1 1 0 0
BITMAP
00
ENDCHAR
STARTCHAR exclam
ENCODING 33
SWIDTH 260 0
DWIDTH 17 0
BBX 5 45 6 0
BITMAP
F8
F8
F8
F8
F8
F8
F8
F8
F8
F8
F8
F8
F8
F8
F8
F8
F8
F8
F8
F8
F8
F8
F8
F8
F8
F8
F8
F8
F8
F8
F8
F8
F8
F8
F8
F8
00
00
00
00
F0
F8
F8
F8
70
ENDCHAR
STARTCHAR quotedbl
ENCODING 34
SWIDTH 450 0
DWIDTH 29 0
BBX 12 8 8 37
BITMAP
3060
78F0
FDF0
FDF0
78F0
3860
3060
2040
ENDCHAR
STARTCHAR numbersign
ENCODING 35
SWIDTH 450 0
DWIDTH 29 0
BBX 23 45 3 0
BITMAP
01F87E
01F87E
01F8FC
01F8FC
01F8FC
01F8FC
01F8FC
03F0FC
03F1FC
03F1F8
03F1F8
03F1F8
03F1F8
07E1F8
07E1F8
FFFFFE
FFFFFE
FFFFFE
FFFFFE
FFFFFE
0FC3F0
0FC7F0
0FC7E0
0FC7E0
0FC7E0
FFFFFC
FFFFFE
FFFFFE
FFFFFE
FFFFFE
FFFFFE
1F8FC0
1F8FC0
3F0FC0
3F1FC0
3F1F80
3F1F80
3F1F80
3F1F80
7E1F80
7E1F80
7E3F00
7E3F00
7E3F00
7E3F00
ENDCHAR
STARTCHAR dollar
ENCODING 36
SWIDTH 450 0
DWIDTH 29 0
BBX 23 56 3 -6
BITMAP
007C00
007C00
007C00
007C00
007C00
007C00
03FF80
07FFC0
0FFFE0
1FFFF0
3FFFF8
7F83FC
7E01FC
7E00FC
FC00FC
FC007E
FC0000
FC0000
FC0000
7E0000
7F0000
7F8000
3FC000
1FE000
0FF000
07F800
03FC00
01FF00
00FF80
007FC0
003FE0
000FF0
0007F8
0003F8
0001FC
0000FC
0000FC
00007E
00007E
FC007E
FC007C
FE00FC
7E00FC
7F03FC
3FFFF8
3FFFF0
1FFFF0
0FFFC0
03FF80
00FE00
007C00
007C00
007C00
007C00
007C00
007C00
ENDCHAR
STARTCHAR percent
ENCODING 37
SWIDTH 450 0
DWIDTH 29 0
BBX 23 46 3 -1
BITMAP
0F007E
3F807C
7FC0FC
7FE0F8
FBE1F8
F1E1F8
F1E1F0
FFE3F0
7FE3F0
7FC3E0
3F87E0
0007C0
000FC0
000FC0
000F80
001F80
001F80
001F00
003F00
003E00
007E00
007E00
007C00
00FC00
00FC00
00F800
01F800
01F000
03F000
03F000
03E000
07E000
07E000
07C000
0FC1E0
0F87F8
1F8FFC
1F8FFC
1F0F7E
3F1F3E
3F1F3E
3E0FFC
7E0FFC
7C07F8
FC03F0
FC0080
ENDCHAR
STARTCHAR ampersand
ENCODING 38
SWIDTH 450 0
DWIDTH 29 0
BBX 23 45 3 0
BITMAP
01FF00
03FF80
0FFFC0
0FFFE0
1FFFF0
3FC7F8
3F03F8
3F01F8
3E01F8
7E00F8
3E0000
3F0000
3F0000
3F8000
1F8000
1F8000
0FC000
1FC000
3FE000
3FE000
7FF000
7FF000
FFF800
FDF800
FDF800
FCFC7E
FCFC7E
FC7E7E
FC7E7E
FC7F7E
FC3F7E
FC3FFE
FC1FFE
FC1FFE
FC0FFE
FC0FFE
FC07FC
7E07FC
7F03FC
3FFFF8
3FFFF8
1FFFF8
0FFFFC
03FFFC
00FEFE
ENDCHAR
STARTCHAR quotesingle
ENCODING 39
SWIDTH 260 0
DWIDTH 17 0
BBX 5 8 6 37
BITMAP
60
F8
F8
F8
F8
70
60
60
ENDCHAR
STARTCHAR parenleft
ENCODING 40
SWIDTH 450 0
DWIDTH 29 0
BBX 12 44 8 0
BITMAP
0380
03C0
07F0
07E0
0FC0
0FC0
1F80
1F80
1F00
3F00
3F00
3E00
7E00
7E00
7E00
7C00
7C00
FC00
FC00
FC00
FC00
FC00
FC00
FC00
FC00
FC00
7C00
7C00
7C00
7E00
7E00
3E00
3E00
3F00
3F00
1F80
1F80
0FC0
0FC0
0FE0
07E0
07F0
03C0
0300
ENDCHAR
STARTCHAR parenright
ENCODING 41
SWIDTH 450 0
DWIDTH 29 0
BBX 12 44 9 0
BITMAP
1C00
7C00
FE00
7E00
7F00
3F00
3F80
1F80
1F80
0FC0
0FC0
0FC0
07E0
07E0
07E0
07E0
03E0
03E0
03E0
03F0
03F0
03F0
03F0
03E0
03E0
03E0
03E0
07E0
07E0
07E0
07C0
07C0
0FC0
0FC0
0F80
1F80
1F80
3F00
3F00
7E00
FE00
FC00
3C00
0800
ENDCHAR
STARTCHAR asterisk
ENCODING 42
SWIDTH 450 0
DWIDTH 29 0
BBX 19 20 5 31
BITMAP
01F000
01F000
01F000
21F080
79F3C0
FDFFC0
FFFFE0
7FFF80
1FFF00
07FC00
0FFE00
3FFF80
FFFFC0
FFFFE0
79F7C0
71F1C0
01F000
01F000
01F000
01F000
ENDCHAR
STARTCHAR plus
ENCODING 43
SWIDTH 450 0
DWIDTH 29 0
BBX 17 17 6 9
BITMAP
03E000
03E000
03E000
03E000
03E000
03E000
FFFF80
FFFF80
FFFF80
FFFF80
FFFF80
FFFF80
03E000
03E000
03E000
03E000
03E000
ENDCHAR
STARTCHAR comma
ENCODING 44
SWIDTH 260 0
DWIDTH 17 0
BBX 6 9 5 -3
BITMAP
30
7C
7C
FC
7C
3C
18
18
18
ENDCHAR
STARTCHAR hyphen
ENCODING 45
SWIDTH 450 0
DWIDTH 29 0
BBX 17 6 6 14
BITMAP
FFFF80
FFFF80
FFFF80
FFFF80
FFFF80
FFFF80
ENDCHAR
STARTCHAR period
ENCODING 46
SWIDTH 260 0
DWIDTH 17 0
BBX 6 6 5 0
BITMAP
30
7C
7C
FC
7C
38
ENDCHAR
STARTCHAR slash
ENCODING 47
SWIDTH 450 0
DWIDTH 29 0
BBX 21 45 4 0
BITMAP
0001F8
0001F8
0003F8
0003F0
0003F0
0007E0
0007E0
0007E0
000FC0
000FC0
000FC0
001F80
001F80
001F80
003F00
003F00
007F00
007E00
007E00
00FE00
00FC00
00FC00
01F800
01F800
01F800
03F000
03F000
03F000
07E000
07E000
07E000
0FC000
0FC000
0FC000
1F8000
1F8000
3F8000
3F0000
3F0000
7F0000
7E0000
7E0000
FC0000
FC0000
FC0000
ENDCHAR
STARTCHAR zero
ENCODING 48
SWIDTH 450 0
DWIDTH 29 0
BBX 23 45 3 0
BITMAP
007C00
03FF80
07FFC0
1FFFE0
1FFFF0
3FFFF8
7F83F8
7E01FC
7E00FC
FC007C
FC007E
FC007E
FC007E
FC007E
FC007E
FC007E
FC007E
FC007E
FC007E
FC007E
FC007E
FC007E
FC007E
FC007E
FC007E
FC007E
FC007E
FC007E
FC007E
FC007E
FC007E
FC007E
FC007E
FC007E
FC007E
FC007C
FC00FC
7E00FC
7F03FC
3FFFF8
3FFFF0
1FFFF0
0FFFC0
03FF80
00FE00
ENDCHAR
STARTCHAR one
ENCODING 49
SWIDTH 450 0
DWIDTH 29 0
BBX 12 45 9 0
BITMAP
03F0
03F0
03F0
07F0
07F0
0FF0
1FF0
7FF0
FFF0
FFF0
FFF0
FBF0
E3F0
03F0
03F0
03F0
03F0
03F0
03F0
03F0
03F0
03F0
03F0
03F0
03F0
03F0
03F0
03F0
03F0
03F0
03F0
03F0
03F0
03F0
03F0
03F0
03F0
03F0
03F0
03F0
03F0
03F0
03F0
03F0
03F0
ENDCHAR
STARTCHAR two
ENCODING 50
SWIDTH 450 0
DWIDTH 29 0
BBX 23 45 3 0
BITMAP
007C00
03FF80
07FFC0
0FFFE0
1FFFF0
3FFFF8
7F83FC
7E01FC
7E00FC
FC007C
FC007E
FC007E
FC007E
FC007C
7C00FC
7801FC
7001F8
0003F8
0003F0
0007F0
000FE0
000FC0
001FC0
003F80
003F00
007F00
00FE00
00FC00
01FC00
01F800
03F800
07F000
07E000
0FE000
1FC000
1F8000
3F8000
7F0000
7F0000
FFFFFC
FFFFFE
FFFFFE
FFFFFE
FFFFFE
FFFFFE
ENDCHAR
STARTCHAR three
ENCODING 51
SWIDTH 450 0
DWIDTH 29 0
BBX 23 45 3 0
BITMAP
FFFFFE
FFFFFE
FFFFFE
FFFFFE
FFFFFE
FFFFFE
0000FC
0001FC
0003F8
0003F0
0007F0
000FE0
000FC0
001FC0
003F80
003F00
007F00
00FE00
00FF80
00FFC0
00FFE0
00FFF0
00FFF8
0003F8
0001FC
0000FC
00007C
00007E
00007E
00007E
00007E
00007E
00007E
00007E
00007E
00007C
0C00FC
3C01FC
FF03F8
7FFFF8
3FFFF0
3FFFE0
0FFFC0
07FF80
00FC00
ENDCHAR
STARTCHAR four
ENCODING 52
SWIDTH 450 0
DWIDTH 29 0
BBX 23 45 3 0
BITMAP
00FC00
00F800
01F800
01F800
01F800
01F000
03F000
03F000
03F000
03E000
07E000
07E000
07E000
07C000
0FC000
0FC000
0FC000
0F8000
1F8000
1F8000
1F8000
3F0000
3F0000
3F1F80
3F1F80
7E1F80
7E1F80
7E1F80
7E1F80
FC1F80
FFFFFC
FFFFFE
FFFFFE
FFFFFE
FFFFFE
FFFFFE
001F80
001F80
001F80
001F80
001F80
001F80
001F80
001F80
001F80
ENDCHAR
STARTCHAR five
ENCODING 53
SWIDTH 450 0
DWIDTH 29 0
BBX 23 45 3 0
BITMAP
FFFFFE
FFFFFE
FFFFFE
FFFFFE
FFFFFE
FFFFFE
FC0000
FC0000
FC0000
FC0000
FC0000
FC0000
FC0000
FC0000
FC0000
FDFE00
FFFF80
FFFFE0
FFFFF0
FFFFF8
FFC7F8
FF01FC
FE00FC
FC00FC
FC007E
FC007E
00007E
00007E
00007E
00007E
00007E
00007E
00007E
00007E
FC007E
FC007C
7C00FC
7E00FC
7F01FC
3FFFF8
3FFFF0
1FFFF0
0FFFE0
03FF80
00FE00
ENDCHAR
STARTCHAR six
ENCODING 54
SWIDTH 450 0
DWIDTH 29 0
BBX 23 45 3 0
BITMAP
007C00
03FF80
07FFC0
1FFFE0
1FFFF0
3FFFF8
7F83F8
7E01FC
7E00FC
FC007C
FC007E
FC0000
FC0000
FC0000
FC0000
FC0000
FC0000
FCFE00
FFFF80
FFFFC0
FFFFE0
FFFFF0
FFFFF8
FF03F8
FE01FC
FC00FC
FC007C
FC007E
FC007E
FC007E
FC007E
FC007E
FC007E
FC007E
FC007C
FC007C
FC00FC
7E00FC
7F03FC
3FFFF8
3FFFF0
1FFFE0
0FFFC0
03FF80
00FE00
ENDCHAR
STARTCHAR seven
ENCODING 55
SWIDTH 450 0
DWIDTH 29 0
BBX 23 45 3 0
BITMAP
FFFFFE
FFFFFE
FFFFFE
FFFFFE
FFFFFE
FFFFFE
FC00FC
FC00FC
FC01FC
FC01FC
FC01F8
0001F8
0003F8
0003F8
0003F0
0003F0
0007F0
0007E0
0007E0
000FE0
000FE0
000FC0
000FC0
001FC0
001FC0
001F80
001F80
003F80
003F80
003F00
003F00
007F00
007F00
007E00
007E00
00FE00
00FC00
00FC00
01FC00
01FC00
01F800
01F800
03F800
03F800
03F000
ENDCHAR
STARTCHAR eight
ENCODING 56
SWIDTH 450 0
DWIDTH 29 0
BBX 23 45 3 0
BITMAP
007C00
03FF80
07FFC0
0FFFE0
1FFFF0
3FFFF8
7F83FC
7F01FC
7E00FC
FC007C
FC007E
FC007E
FC007E
FC007E
FC007E
FC007E
FC007C
7E00FC
7F01FC
3FC7F8
3FFFF8
1FFFF0
0FFFE0
1FFFF0
3FFFF8
3FCFF8
7F01FC
7E00FC
7C00FC
FC007E
FC007E
FC007E
FC007E
FC007E
FC007E
FC007E
7E00FC
7E00FC
7F01FC
3FFFF8
3FFFF0
1FFFF0
0FFFC0
03FF80
00FE00
ENDCHAR
STARTCHAR nine
ENCODING 57
SWIDTH 450 0
DWIDTH 29 0
BBX 23 45 3 0
BITMAP
007C00
03FF80
07FFC0
1FFFE0
1FFFF0
3FFFF8
7F83F8
7E01FC
7E00FC
FC007C
FC007E
FC007E
FC007E
FC007E
FC007E
FC007E
FC007E
FC007E
FC007E
FC00FE
7E00FE
7F01FE
3FCFFE
3FFFFE
1FFFFE
0FFFFE
07FFFE
01FE7E
00007E
00007E
00007E
00007E
00007E
00007E
FC007E
FC007C
7C00FC
7E00FC
7F01FC
3FFFF8
3FFFF0
1FFFF0
0FFFE0
03FF80
00FE00
ENDCHAR
STARTCHAR colon
ENCODING 58
SWIDTH 260 0
DWIDTH 17 0
BBX 6 25 5 6
BITMAP
38
7C
FC
7C
78
00
00
00
00
00
00
00
00
00
00
00
00
00
00
00
78
7C
FC
7C
78
ENDCHAR
STARTCHAR semicolon
ENCODING 59
SWIDTH 260 0
DWIDTH 17 0
BBX 6 28 5 3
BITMAP
38
7C
FC
7C
78
00
00
00
00
00
00
00
00
00
00
00
00
00
00
00
78
7C
FC
7C
7C
18
18
18
ENDCHAR
STARTCHAR less
ENCODING 60
SWIDTH 450 0
DWIDTH 29 0
BBX 13 26 8 8
BITMAP
0018
0038
0078
00F8
03F8
07F0
0FE0
3FC0
7F00
FE00
FC00
F800
F000
F000
F800
FE00
7F00
3F80
1FC0
0FE0
03F8
01F8
00F8
0078
0018
0008
ENDCHAR
STARTCHAR equal
ENCODING 61
SWIDTH 450 0
DWIDTH 29 0
BBX 20 16 4 7
BITMAP
7FFFF0
FFFFF0
FFFFF0
FFFFF0
FFFFF0
FFFFF0
000000
000000
000000
000000
000000
FFFFF0
FFFFF0
FFFFF0
FFFFF0
FFFFF0
ENDCHAR
STARTCHAR greater
ENCODING 62
SWIDTH 450 0
DWIDTH 29 0
BBX 13 26 8 8
BITMAP
C000
E000
F000
F800
FC00
7F00
3F80
1FC0
0FE0
03F8
01F8
00F8
0078
0078
00F8
03F8
07F0
0FE0
1FC0
7F80
FE00
FC00
F800
F000
C000
8000
ENDCHAR
STARTCHAR question
ENCODING 63
SWIDTH 450 0
DWIDTH 29 0
BBX 23 45 3 0
BITMAP
01FF00
07FFC0
0FFFE0
1FFFF0
3FFFF8
7FC7F8
7F01FC
7E00FC
FC00FC
FC007E
FC007E
00007E
00007E
00007C
0000FC
0001FC
0003F8
0007F8
000FF0
001FE0
003FC0
003F80
007F00
007E00
00FC00
00FC00
00FC00
00FC00
00FC00
00FC00
00FC00
00FC00
00FC00
00FC00
00FC00
00FC00
000000
000000
000000
003000
007800
00FC00
00FC00
00F800
007800
ENDCHAR
STARTCHAR at
ENCODING 64
SWIDTH 715 0
DWIDTH 46 0
BBX 40 53 3 -11
BITMAP
0007FFC000
001FFFF800
007FFFFC00
00FFFFFF00
01FFFFFF80
03FF81FFC0
07FC003FE0
0FF0000FF0
1FE00007F8
1FC00003F8
3F800001FC
3F007FF0FC
7E01FFF0FE
7E03FFF07E
7C07FFF07E
FC0FFFF03E
FC0FEFF03F
FC0FC3F03F
FC1F81F03F
FC1F81F03F
FC1F81F03F
FC1F81F03F
FC1F81F03F
FC1F81F03F
FC1F81F03F
FC1F81F03F
FC1F81F03F
FC1F81F03F
FC1F81F03F
FC1F81F03F
FC1F81F03F
FC1F81F03F
FC1F81F03F
FC1F81F03F
FC1F81F83F
FC0FC3F87F
FC0FFFFFFE
FC0FFFFFFE
7E07FFFFFC
7E03FFFFF8
7F01FFBFF0
3F007E0FC0
3F80000000
1FC0000000
1FE0000000
0FF0000000
07FC000000
03FFC00000
01FFFFFFC0
00FFFFFFC0
003FFFFFC0
001FFFFFC0
0003FFFFC0
ENDCHAR
STARTCHAR A
ENCODING 65
SWIDTH 450 0
DWIDTH 29 0
BBX 22 44 3 0
BITMAP
00FC00
00FE00
00FE00
00FE00
00FE00
01FE00
01FF00
01FF00
01FF00
01FF00
01FF00
03FF00
03FF80
03FF80
03FF80
03FF80
07EF80
07EFC0
07EFC0
07CFC0
07C7C0
0FC7C0
0FC7E0
0FC7E0
0FC7E0
0F87E0
0F83E0
1F83E0
1F83F0
1F83F0
1FFFF0
1FFFF0
3FFFF0
3FFFF8
3FFFF8
3FFFF8
3E00F8
7E00F8
7E00FC
7E00FC
7C00FC
7C00FC
7C007C
FC007C
ENDCHAR
STARTCHAR B
ENCODING 66
SWIDTH 450 0
DWIDTH 29 0
BBX 23 45 3 0
BITMAP
FFF000
FFFE00
FFFF80
FFFFC0
FFFFE0
FFFFF0
FC07F0
FC03F8
FC01F8
FC00FC
FC00FC
FC00FC
FC00FC
FC00FC
FC00F8
FC01F8
FC03F8
FC07F0
FFFFF0
FFFFE0
FFFFC0
FFFFC0
FFFFE0
FFFFF0
FC07F8
FC03F8
FC01FC
FC00FC
FC00FC
FC007C
FC007E
FC007E
FC007E
FC007C
FC00FC
FC00FC
FC01FC
FC03F8
FC07F8
FFFFF0
FFFFE0
FFFFC0
FFFF80
FFFE00
FFF800
ENDCHAR
STARTCHAR C
ENCODING 67
SWIDTH 450 0
DWIDTH 29 0
BBX 23 45 3 0
BITMAP
007C00
03FF80
07FFC0
1FFFE0
1FFFF0
3FFFF8
7F83FC
7E01FC
7E00FC
FC007C
FC007E
FC0000
FC0000
FC0000
FC0000
FC0000
FC0000
FC0000
FC0000
FC0000
FC0000
FC0000
FC0000
FC0000
FC0000
FC0000
FC0000
FC0000
FC0000
FC0000
FC0000
FC0000
FC0000
FC0000
FC007E
FC007C
7E00FC
7E00FC
7F83FC
3FFFF8
3FFFF0
1FFFE0
0FFFC0
03FF80
00FE00
ENDCHAR
STARTCHAR D
ENCODING 68
SWIDTH 450 0
DWIDTH 29 0
BBX 23 45 3 0
BITMAP
FFFC00
FFFF80
FFFFC0
FFFFE0
FFFFF0
FFFFF8
FC03F8
FC01FC
FC00FC
FC007C
FC007E
FC007E
FC007E
FC007E
FC007E
FC007E
FC007E
FC007E
FC007E
FC007E
FC007E
FC007E
FC007E
FC007E
FC007E
FC007E
FC007E
FC007E
FC007E
FC007E
FC007E
FC007E
FC007E
FC007E
FC007E
FC007C
FC00FC
FC00FC
FC03FC
FFFFF8
FFFFF0
FFFFF0
FFFFE0
FFFF80
FFFE00
ENDCHAR
STARTCHAR E
ENCODING 69
SWIDTH 450 0
DWIDTH 29 0
BBX 23 45 3 0
BITMAP
FFFFFE
FFFFFE
FFFFFE
FFFFFE
FFFFFE
FFFFFE
FC0000
FC0000
FC0000
FC0000
FC0000
FC0000
FC0000
FC0000
FC0000
FC0000
FC0000
FC0000
FC0000
FC0000
FFFF80
FFFF80
FFFF80
FFFF80
FFFF80
FC0000
FC0000
FC0000
FC0000
FC0000
FC0000
FC0000
FC0000
FC0000
FC0000
FC0000
FC0000
FC0000
FC0000
FFFFFC
FFFFFE
FFFFFE
FFFFFE
FFFFFE
FFFFFE
ENDCHAR
STARTCHAR F
ENCODING 70
SWIDTH 450 0
DWIDTH 29 0
BBX 23 45 3 0
BITMAP
FFFFFE
FFFFFE
FFFFFE
FFFFFE
FFFFFE
FFFFFE
FC0000
FC0000
FC0000
FC0000
FC0000
FC0000
FC0000
FC0000
FC0000
FC0000
FC0000
FC0000
FC0000
FC0000
FFFF80
FFFF80
FFFF80
FFFF80
FFFF80
FC0000
FC0000
FC0000
FC0000
FC0000
FC0000
FC0000
FC0000
FC0000
FC0000
FC0000
FC0000
FC0000
FC0000
FC0000
FC0000
FC0000
FC0000
FC0000
FC0000
ENDCHAR
STARTCHAR G
ENCODING 71
SWIDTH 450 0
DWIDTH 29 0
BBX 23 45 3 0
BITMAP
007C00
03FF80
07FFC0
1FFFE0
1FFFF0
3FFFF8
7F83FC
7E01FC
7E00FC
FC007C
FC007E
FC0000
FC0000
FC0000
FC0000
FC0000
FC0000
FC0000
FC0000
FC0000
FC0000
FC0FFC
FC1FFE
FC1FFE
FC1FFE
FC1FFE
FC1FFE
FC007E
FC007E
FC007E
FC007E
FC007E
FC007E
FC007E
FC007E
FC007E
FE00FE
7E00FE
7F03FE
3FFFFE
3FFFFE
1FFFFE
0FFFFE
03FFFE
00FC7E
ENDCHAR
STARTCHAR H
ENCODING 72
SWIDTH 450 0
DWIDTH 29 0
BBX 23 45 3 0
BITMAP
FC007E
FC007E
FC007E
FC007E
FC007E
FC007E
FC007E
FC007E
FC007E
FC007E
FC007E
FC007E
FC007E
FC007E
FC007E
FC007E
FC007E
FC007E
FC007E
FC007E
FFFFFE
FFFFFE
FFFFFE
FFFFFE
FFFFFE
FC007E
FC007E
FC007E
FC007E
FC007E
FC007E
FC007E
FC007E
FC007E
FC007E
FC007E
FC007E
FC007E
FC007E
FC007E
FC007E
FC007E
FC007E
FC007E
FC007E
ENDCHAR
STARTCHAR I
ENCODING 73
SWIDTH 261 0
DWIDTH 17 0
BBX 5 45 6 0
BITMAP
F8
F8
F8
F8
F8
F8
F8
F8
F8
F8
F8
F8
F8
F8
F8
F8
F8
F8
F8
F8
F8
F8
F8
F8
F8
F8
F8
F8
F8
F8
F8
F8
F8
F8
F8
F8
F8
F8
F8
F8
F8
F8
F8
F8
F8
ENDCHAR
STARTCHAR J
ENCODING 74
SWIDTH 450 0
DWIDTH 29 0
BBX 23 45 3 0
BITMAP
00007E
00007E
00007E
00007E
00007E
00007E
00007E
00007E
00007E
00007E
00007E
00007E
00007E
00007E
00007E
00007E
00007E
00007E
00007E
00007E
00007E
00007E
00007E
00007E
00007E
00007E
00007E
00007E
00007E
00007E
00007E
00007E
00007E
00007E
FC007E
FC007C
FE00FC
7E00FC
7F03FC
3FFFF8
3FFFF0
1FFFF0
0FFFE0
03FF80
00FE00
ENDCHAR
STARTCHAR K
ENCODING 75
SWIDTH 450 0
DWIDTH 29 0
BBX 22 45 3 0
BITMAP
FC00FC
FC01FC
FC01F8
FC03F8
FC03F0
FC07F0
FC0FE0
FC0FC0
FC1FC0
FC3F80
FC3F00
FC7F00
FC7E00
FCFE00
FDFC00
FDF800
FFF800
FFF000
FFF000
FFE000
FFC000
FFC000
FF8000
FFC000
FFC000
FFE000
FFE000
FFF000
FFF800
FDF800
FDFC00
FCFC00
FC7E00
FC7F00
FC3F00
FC3F80
FC1FC0
FC0FC0
FC0FE0
FC07E0
FC07F0
FC03F8
FC01F8
FC01FC
FC00FC
ENDCHAR
STARTCHAR L
ENCODING 76
SWIDTH 450 0
DWIDTH 29 0
BBX 23 45 3 0
BITMAP
FC0000
FC0000
FC0000
FC0000
FC0000
FC0000
FC0000
FC0000
FC0000
FC0000
FC0000
FC0000
FC0000
FC0000
FC0000
FC0000
FC0000
FC0000
FC0000
FC0000
FC0000
FC0000
FC0000
FC0000
FC0000
FC0000
FC0000
FC0000
FC0000
FC0000
FC0000
FC0000
FC0000
FC0000
FC0000
FC0000
FC0000
FC0000
FC0000
FFFFFC
FFFFFE
FFFFFE
FFFFFE
FFFFFE
FFFFFE
ENDCHAR
STARTCHAR M
ENCODING 77
SWIDTH 450 0
DWIDTH 29 0
BBX 23 45 3 0
BITMAP
FC007E
FC007E
FE00FE
FE00FE
FE00FE
FF01FE
FF01FE
FF03FE
FF83FE
FF83FE
FF87FE
FFC7FE
FFC7FE
FFCFFE
FFEFFE
FFEFFE
FFFFFE
FFFFFE
FFFFFE
FFFF7E
FDFF7E
FDFF7E
FCFE7E
FCFE7E
FCFE7E
FC7C7E
FC7C7E
FC7C7E
FC387E
FC387E
FC387E
FC107E
FC107E
FC007E
FC007E
FC007E
FC007E
FC007E
FC007E
FC007E
FC007E
FC007E
FC007E
FC007E
FC007E
ENDCHAR
STARTCHAR N
ENCODING 78
SWIDTH 450 0
DWIDTH 29 0
BBX 23 45 3 0
BITMAP
FC007E
FC007E
FE007E
FE007E
FE007E
FF007E
FF007E
FF807E
FF807E
FF807E
FFC07E
FFC07E
FFE07E
FFE07E
FFE07E
FFF07E
FFF07E
FFF07E
FDF87E
FDF87E
FCFC7E
FCFC7E
FCFC7E
FC7E7E
FC7E7E
FC3E7E
FC3F7E
FC3F7E
FC1FFE
FC1FFE
FC1FFE
FC0FFE
FC0FFE
FC07FE
FC07FE
FC07FE
FC03FE
FC03FE
FC03FE
FC01FE
FC01FE
FC00FE
FC00FE
FC00FE
FC007E
ENDCHAR
STARTCHAR O
ENCODING 79
SWIDTH 450 0
DWIDTH 29 0
BBX 23 45 3 0
BITMAP
007C00
03FF80
07FFC0
0FFFE0
1FFFF0
3FFFF8
7F83F8
7E01FC
7E00FC
FC007C
FC007E
FC007E
FC007E
FC007E
FC007E
FC007E
FC007E
FC007E
FC007E
FC007E
FC007E
FC007E
FC007E
FC007E
FC007E
FC007E
FC007E
FC007E
FC007E
FC007E
FC007E
FC007E
FC007E
FC007E
FC007E
FC007C
FE00FC
7E00FC
7F03FC
3FFFF8
3FFFF0
1FFFF0
0FFFE0
03FF80
00FE00
ENDCHAR
STARTCHAR P
ENCODING 80
SWIDTH 450 0
DWIDTH 29 0
BBX 23 45 3 0
BITMAP
FFF000
FFFE00
FFFF80
FFFFC0
FFFFE0
FFFFF0
FC0FF8
FC03F8
FC01FC
FC00FC
FC00FC
FC007C
FC007E
FC007E
FC007E
FC007C
FC007C
FC00FC
FC01FC
FC03F8
FC07F8
FC3FF0
FFFFE0
FFFFC0
FFFF80
FFFF00
FFF800
FC0000
FC0000
FC0000
FC0000
FC0000
FC0000
FC0000
FC0000
FC0000
FC0000
FC0000
FC0000
FC0000
FC0000
FC0000
FC0000
FC0000
FC0000
ENDCHAR
STARTCHAR Q
ENCODING 81
SWIDTH 450 0
DWIDTH 29 0
BBX 23 45 3 0
BITMAP
007C00
03FF80
07FFC0
1FFFE0
1FFFF0
3FFFF8
7F83FC
7E01FC
7E00FC
FC007C
FC007E
FC007E
FC007E
FC007E
FC007E
FC007E
FC007E
FC007E
FC007E
FC007E
FC007E
FC007E
FC007E
FC007E
FC007E
FC007E
FC007E
FC007E
FC007E
FC007E
FC007E
FC007E
FC007E
FC007E
FC007E
FC007C
FE00FC
7E00FC
7F03FC
3FFFF8
3FFFF8
1FFFF8
0FFFFC
03FFFC
00FE7C
ENDCHAR
STARTCHAR R
ENCODING 82
SWIDTH 450 0
DWIDTH 29 0
BBX 23 45 3 0
BITMAP
FFF000
FFFE00
FFFF80
FFFFC0
FFFFE0
FFFFF0
FC0FF8
FC03F8
FC01FC
FC00FC
FC00FC
FC007C
FC007E
FC007E
FC007E
FC007C
FC007C
FC00FC
FC01FC
FC03F8
FC07F8
FC3FF0
FFFFE0
FFFFC0
FFFF80
FFFF00
FFFF00
FC1F80
FC1F80
FC0F80
FC0FC0
FC0FC0
FC0FC0
FC07E0
FC07E0
FC07E0
FC03F0
FC03F0
FC03F0
FC01F8
FC01F8
FC01F8
FC00FC
FC00FC
FC00FC
ENDCHAR
STARTCHAR S
ENCODING 83
SWIDTH 450 0
DWIDTH 29 0
BBX 23 45 3 0
BITMAP
007C00
03FF80
07FFC0
1FFFE0
1FFFF0
3FFFF8
7F83F8
7E01FC
7E00FC
FC007C
FC007E
FC0000
FC0000
FC0000
7E0000
7F0000
7F8000
3FC000
1FE000
0FF000
07F800
03FC00
01FF00
00FF80
007FC0
003FE0
000FF0
0007F8
0003F8
0001FC
0000FC
0000FC
00007E
00007E
FC007E
FC007C
FE00FC
7E00FC
7F03FC
3FFFF8
3FFFF0
1FFFF0
0FFFE0
03FF80
00FE00
ENDCHAR
STARTCHAR T
ENCODING 84
SWIDTH 450 0
DWIDTH 29 0
BBX 23 45 3 0
BITMAP
FFFFFE
FFFFFE
FFFFFE
FFFFFE
FFFFFE
FFFFFE
007C00
007C00
007C00
007C00
007C00
007C00
007C00
007C00
007C00
007C00
007C00
007C00
007C00
007C00
007C00
007C00
007C00
007C00
007C00
007C00
007C00
007C00
007C00
007C00
007C00
007C00
007C00
007C00
007C00
007C00
007C00
007C00
007C00
007C00
007C00
007C00
007C00
007C00
007C00
ENDCHAR
STARTCHAR U
ENCODING 85
SWIDTH 450 0
DWIDTH 29 0
BBX 23 45 3 0
BITMAP
FC007E
FC007E
FC007E
FC007E
FC007E
FC007E
FC007E
FC007E
FC007E
FC007E
FC007E
FC007E
FC007E
FC007E
FC007E
FC007E
FC007E
FC007E
FC007E
FC007E
FC007E
FC007E
FC007E
FC007E
FC007E
FC007E
FC007E
FC007E
FC007E
FC007E
FC007E
FC007E
FC007E
FC007E
FC007E
FC007C
FE00FC
7E00FC
7F03FC
3FFFF8
3FFFF0
1FFFF0
0FFFE0
03FF80
00FE00
ENDCHAR
STARTCHAR V
ENCODING 86
SWIDTH 450 0
DWIDTH 29 0
BBX 22 45 3 0
BITMAP
FC007C
FC007C
7C007C
7C00FC
7E00FC
7E00FC
7E00FC
3E00F8
3E00F8
3F01F8
3F01F8
3F01F8
1F01F0
1F01F0
1F83F0
1F83F0
1F83F0
0F83F0
0F83E0
0FC3E0
0FC7E0
0FC7E0
07C7E0
07C7E0
07E7C0
07E7C0
07EFC0
03EFC0
03FFC0
03FF80
03FF80
03FF80
01FF80
01FF80
01FF80
01FF00
01FF00
00FF00
00FF00
00FF00
00FF00
00FE00
007E00
007E00
007E00
ENDCHAR
STARTCHAR W
ENCODING 87
SWIDTH 450 0
DWIDTH 29 0
BBX 23 45 3 0
BITMAP
FC007E
FC007E
FC007C
FC007C
FC007C
7C007C
7C007C
7C007C
7C00FC
7C00FC
7C00FC
7E00FC
7E00FC
7E00FC
7E00FC
7E00FC
7E10FC
7E10FC
7E30F8
7E38F8
7E38F8
3E78F8
3E7CF8
3E7CF8
3E7DF8
3EFFF8
3FFFF8
3FFFF8
3FFFF8
3FFFF8
3FFFF8
3FFFF8
3FFFF8
3FFFF0
3FFFF0
3FFFF0
3FEFF0
1FEFF0
1FCFF0
1FC7F0
1FC7F0
1FC7F0
1F87F0
1F83F0
1F83F0
ENDCHAR
STARTCHAR X
ENCODING 88
SWIDTH 450 0
DWIDTH 29 0
BBX 22 45 3 0
BITMAP
FC007C
7C00FC
7E00FC
7E00FC
7E01F8
3F01F8
3F01F8
3F01F0
1F83F0
1F83F0
1F83F0
0F87E0
0FC7E0
0FC7E0
0FCFC0
07EFC0
07EFC0
07FF80
03FF80
03FF80
03FF80
01FF00
01FF00
01FF00
03FF00
03FF80
03FF80
07FF80
07EFC0
07EFC0
07CFC0
0FC7E0
0FC7E0
0FC7E0
1F83E0
1F83F0
1F83F0
3F03F0
3F01F8
3F01F8
3E01F8
7E00FC
7E00FC
7E00FC
FC007C
ENDCHAR
STARTCHAR Y
ENCODING 89
SWIDTH 450 0
DWIDTH 29 0
BBX 22 45 3 0
BITMAP
FC007C
7C00FC
7E00FC
7E01F8
7E01F8
3E01F8
3F03F0
3F03F0
3F03F0
1F07E0
1F87E0
1F8FE0
1F8FC0
0FCFC0
0FDF80
0FDF80
07FF80
07FF00
07FF00
07FF00
03FE00
03FE00
03FC00
03FC00
01FC00
01F800
01F800
01F800
03F000
03F000
03F000
07E000
07E000
0FC000
0FC000
0FC000
1F8000
1F8000
1F8000
3F0000
3F0000
7F0000
7E0000
7E0000
FC0000
ENDCHAR
STARTCHAR Z
ENCODING 90
SWIDTH 450 0
DWIDTH 29 0
BBX 23 45 3 0
BITMAP
FFFFFE
FFFFFE
FFFFFE
FFFFFE
FFFFFE
FFFFFE
0000FC
0000FC
0001F8
0001F8
0003F0
0003F0
0007E0
0007E0
000FC0
000FC0
001F80
001F80
003F00
003F00
007F00
007E00
00FE00
00FC00
01FC00
01F800
03F800
03F000
07F000
07E000
0FE000
0FC000
0FC000
1F8000
1F8000
3F0000
3F0000
7E0000
7E0000
FFFFFC
FFFFFE
FFFFFE
FFFFFE
FFFFFE
FFFFFE
ENDCHAR
STARTCHAR bracketleft
ENCODING 91
SWIDTH 450 0
DWIDTH 29 0
BBX 13 45 8 0
BITMAP
FFF8
FFF8
FFF8
FFF8
FFF8
FFF8
FC00
FC00
FC00
FC00
FC00
FC00
FC00
FC00
FC00
FC00
FC00
FC00
FC00
FC00
FC00
FC00
FC00
FC00
FC00
FC00
FC00
FC00
FC00
FC00
FC00
FC00
FC00
FC00
FC00
FC00
FC00
FC00
FC00
FFF8
FFF8
FFF8
FFF8
FFF8
FFF8
ENDCHAR
STARTCHAR backslash
ENCODING 92
SWIDTH 450 0
DWIDTH 29 0
BBX 21 45 4 0
BITMAP
FC0000
FC0000
7E0000
7E0000
7E0000
3F0000
3F0000
3F0000
1F8000
1F8000
1FC000
0FC000
0FC000
0FE000
07E000
07E000
07F000
03F000
03F000
01F800
01F800
01F800
00FC00
00FC00
00FC00
007E00
007E00
007E00
003F00
003F00
003F80
001F80
001F80
001FC0
000FC0
000FC0
000FE0
0007E0
0007E0
0003F0
0003F0
0003F0
0001F8
0001F8
0001F8
ENDCHAR
STARTCHAR bracketright
ENCODING 93
SWIDTH 450 0
DWIDTH 29 0
BBX 13 45 8 0
BITMAP
FFF8
FFF8
FFF8
FFF8
FFF8
FFF8
01F8
01F8
01F8
01F8
01F8
01F8
01F8
01F8
01F8
01F8
01F8
01F8
01F8
01F8
01F8
01F8
01F8
01F8
01F8
01F8
01F8
01F8
01F8
01F8
01F8
01F8
01F8
01F8
01F8
01F8
01F8
01F8
01F8
FFF8
FFF8
FFF8
FFF8
FFF8
FFF8
ENDCHAR
STARTCHAR asciicircum
ENCODING 94
SWIDTH 450 0
DWIDTH 29 0
BBX 17 7 6 47
BITMAP
07F000
0FF800
1FFC00
3F7C00
7E7E00
7C3F00
FC1F80
ENDCHAR
STARTCHAR underscore
ENCODING 95
SWIDTH 450 0
DWIDTH 29 0
BBX 29 4 0 -4
BITMAP
FFFFFFF8
FFFFFFF8
FFFFFFF8
FFFFFFF8
ENDCHAR
STARTCHAR grave
ENCODING 96
SWIDTH 450 0
DWIDTH 29 0
BBX 11 8 9 43
BITMAP
FC00
7E00
3E00
1F00
0F80
0F80
07C0
03E0
ENDCHAR
STARTCHAR a
ENCODING 97
SWIDTH 492 0
DWIDTH 31 0
BBX 25 34 3 0
BITMAP
00FF0000
03FFC000
07FFE000
0FFFF000
1FFFF800
3FFFFC00
3F81FC00
3F00FC00
7E007E00
7E007E00
7E007E00
00007E00
00007E00
0000FE00
01FFFE00
07FFFE00
0FFFFE00
1FFFFE00
3FFFFE00
7FFF7E00
7F007E00
FE007E00
FC007E00
FC007E00
FC007E00
FC007E00
FC00FE00
7E01FF00
7FFFFF80
3FFFFF80
3FFFFF80
1FFFFF80
07FFC780
01FF0380
ENDCHAR
STARTCHAR b
ENCODING 98
SWIDTH 450 0
DWIDTH 29 0
BBX 23 45 3 0
BITMAP
FC0000
FC0000
FC0000
FC0000
FC0000
FC0000
FC0000
FC0000
FC0000
FC0000
FC0000
FCFE00
FFFF80
FFFFE0
FFFFF0
FFFFF0
FFFFF8
FF03FC
FE00FC
FC00FC
FC007E
FC007E
FC007E
FC007E
FC007E
FC007E
FC007E
FC007E
FC007E
FC007E
FC007E
FC007E
FC007E
FC007E
FC007E
FC007E
FE00FC
FE00FC
FF03FC
FFFFF8
FFFFF8
FFFFF0
FFFFC0
FFFF80
FCFE00
ENDCHAR
STARTCHAR c
ENCODING 99
SWIDTH 450 0
DWIDTH 29 0
BBX 23 34 3 0
BITMAP
00FE00
03FF80
0FFFE0
1FFFF0
3FFFF0
3FFFF8
7F03FC
7E00FC
FC00FC
FC007E
FC007E
FC0000
FC0000
FC0000
FC0000
FC0000
FC0000
FC0000
FC0000
FC0000
FC0000
FC0000
FC0000
FC007E
FC007E
FC00FC
7E00FC
7F03FC
3FFFF8
3FFFF0
1FFFF0
0FFFC0
03FF80
00FE00
ENDCHAR
STARTCHAR d
ENCODING 100
SWIDTH 450 0
DWIDTH 29 0
BBX 23 45 3 0
BITMAP
00007E
00007E
00007E
00007E
00007E
00007E
00007E
00007E
00007E
00007E
00007E
00FE7E
03FFFE
0FFFFE
1FFFFE
3FFFFE
3FFFFE
7F03FE
7E00FE
FC00FE
FC007E
FC007E
FC007E
FC007E
FC007E
FC007E
FC007E
FC007E
FC007E
FC007E
FC007E
FC007E
FC007E
FC007E
FC007E
FC007E
FC00FE
7E00FE
7F03FE
3FFFFE
3FFFFE
1FFFFE
0FFFFE
03FFFE
00FE7E
ENDCHAR
STARTCHAR e
ENCODING 101
SWIDTH 450 0
DWIDTH 29 0
BBX 23 34 3 0
BITMAP
00FE00
03FF80
0FFFE0
1FFFF0
3FFFF0
3FFFF8
7F03FC
7E00FC
FC00FC
FC007E
FC007E
FC007E
FC007E
FC007E
FFFFFE
FFFFFE
FFFFFE
FFFFFE
FFFFFE
FFFFFE
FC0000
FC0000
FC0000
FC0000
FC0000
FC00E0
7E00F8
7F03FC
3FFFF8
3FFFF0
1FFFF0
0FFFC0
03FF80
00FE00
ENDCHAR
STARTCHAR f
ENCODING 102
SWIDTH 450 0
DWIDTH 29 0
BBX 23 45 3 0
BITMAP
003FC0
007FF0
00FFF8
01FFF8
03FFFC
03F9FC
03F0FE
03E07E
03E000
03E000
03E000
03E000
03E000
03E000
03E000
03E000
03E000
FFFFF0
FFFFF0
FFFFF0
FFFFF0
FFFFF0
03E000
03E000
03E000
03E000
03E000
03E000
03E000
03E000
03E000
03E000
03E000
03E000
03E000
03E000
03E000
03E000
03E000
03E000
03E000
03E000
03E000
03E000
03E000
ENDCHAR
STARTCHAR g
ENCODING 103
SWIDTH 450 0
DWIDTH 29 0
BBX 23 45 3 -11
BITMAP
00FFFE
03FFFE
0FFFFE
1FFFFE
3FFFFE
3FFFFE
7F03FC
7E00FC
FC00FC
FC007E
FC007E
FC007E
FC007E
FC007E
FE00FC
7F01FC
7F83F8
3FFFF8
1FFFF0
0FFFE0
07FFC0
0FFF00
1FF800
1F8000
1F8000
1F8000
1F8000
1F8000
1FFF00
0FFFE0
1FFFF0
3FFFF8
7FFFFC
7FFFFC
FE00FC
FC007E
FC007E
FC007E
FC00FE
FE01FC
7FFFFC
7FFFF8
3FFFF8
1FFFE0
07FFC0
ENDCHAR
STARTCHAR h
ENCODING 104
SWIDTH 450 0
DWIDTH 29 0
BBX 23 45 3 0
BITMAP
FC0000
FC0000
FC0000
FC0000
FC0000
FC0000
FC0000
FC0000
FC0000
FC0000
FC0000
FCFE00
FFFF80
FFFFE0
FFFFF0
FFFFF0
FFFFF8
FF03FC
FE00FC
FC00FC
FC007E
FC007E
FC007E
FC007E
FC007E
FC007E
FC007E
FC007E
FC007E
FC007E
FC007E
FC007E
FC007E
FC007E
FC007E
FC007E
FC007E
FC007E
FC007E
FC007E
FC007E
FC007E
FC007E
FC007E
FC007E
ENDCHAR
STARTCHAR i
ENCODING 105
SWIDTH 261 0
DWIDTH 17 0
BBX 9 45 4 0
BITMAP
7800
FC00
FC00
FC00
7800
0000
0000
0000
0000
0000
0000
FC00
FC00
FC00
FC00
FC00
FC00
FC00
FC00
FC00
FC00
FC00
FC00
FC00
FC00
FC00
FC00
FC00
FC00
FC00
FC00
FC00
FC00
FC00
FC00
FC00
FC00
FC00
FE00
7F80
7F80
3F80
1F80
0F80
0380
ENDCHAR
STARTCHAR j
ENCODING 106
SWIDTH 450 0
DWIDTH 29 0
BBX 17 56 6 -11
BITMAP
000F00
001F80
001F80
001F80
000F00
000000
000000
000000
000000
000000
000000
001F80
001F80
001F80
001F80
001F80
001F80
001F80
001F80
001F80
001F80
001F80
001F80
001F80
001F80
001F80
001F80
001F80
001F80
001F80
001F80
001F80
001F80
001F80
001F80
001F80
001F80
001F80
001F80
001F80
001F80
001F80
001F80
001F80
001F80
001F80
001F80
001F80
FC1F80
FC1F80
FE7F00
7FFF00
7FFF00
3FFE00
1FFC00
07F000
ENDCHAR
STARTCHAR k
ENCODING 107
SWIDTH 450 0
DWIDTH 29 0
BBX 22 45 3 0
BITMAP
FC0000
FC0000
FC0000
FC0000
FC0000
FC0000
FC0000
FC0000
FC0000
FC0000
FC0000
FC00FC
FC01FC
FC01F8
FC03F8
FC03F0
FC07F0
FC0FE0
FC0FC0
FC1FC0
FC1F80
FC3F80
FC3F00
FC7F00
FCFE00
FCFC00
FDFC00
FDF800
FFF800
FFFC00
FFFC00
FFFE00
FFFF00
FFFF00
FFBF80
FF9F80
FF1FC0
FE0FC0
FE0FE0
FC07F0
FC03F0
FC03F8
FC01F8
FC01FC
FC00FC
ENDCHAR
STARTCHAR l
ENCODING 108
SWIDTH 272 0
DWIDTH 17 0
BBX 11 45 3 0
BITMAP
FC00
FC00
FC00
FC00
FC00
FC00
FC00
FC00
FC00
FC00
FC00
FC00
FC00
FC00
FC00
FC00
FC00
FC00
FC00
FC00
FC00
FC00
FC00
FC00
FC00
FC00
FC00
FC00
FC00
FC00
FC00
FC00
FC00
FC00
FC00
FC00
FC00
FC00
FE00
7FE0
7FE0
3FE0
1FE0
0FE0
03E0
ENDCHAR
STARTCHAR m
ENCODING 109
SWIDTH 714 0
DWIDTH 46 0
BBX 40 34 3 0
BITMAP
FCFE007F00
FFFF81FFC0
FFFFE7FFF0
FFFFFFFFF8
FFFFFFFFF8
FFFFFFFFFC
FF03FF81FE
FE00FF007E
FC00FE007E
FC007E003F
FC007E003F
FC007E003F
FC007E003F
FC007E003F
FC007E003F
FC007E003F
FC007E003F
FC007E003F
FC007E003F
FC007E003F
FC007E003F
FC007E003F
FC007E003F
FC007E003F
FC007E003F
FC007E003F
FC007E003F
FC007E003F
FC007E003F
FC007E003F
FC007E003F
FC007E003F
FC007E003F
FC007E003F
ENDCHAR
STARTCHAR n
ENCODING 110
SWIDTH 450 0
DWIDTH 29 0
BBX 23 34 3 0
BITMAP
FCFE00
FFFF80
FFFFE0
FFFFF0
FFFFF0
FFFFF8
FF03FC
FE00FC
FC00FC
FC007E
FC007E
FC007E
FC007E
FC007E
FC007E
FC007E
FC007E
FC007E
FC007E
FC007E
FC007E
FC007E
FC007E
FC007E
FC007E
FC007E
FC007E
FC007E
FC007E
FC007E
FC007E
FC007E
FC007E
FC007E
ENDCHAR
STARTCHAR o
ENCODING 111
SWIDTH 450 0
DWIDTH 29 0
BBX 23 34 3 0
BITMAP
00FE00
03FF80
0FFFE0
1FFFF0
3FFFF0
3FFFF8
7F03FC
7E00FC
FC00FC
FC007E
FC007E
FC007E
FC007E
FC007E
FC007E
FC007E
FC007E
FC007E
FC007E
FC007E
FC007E
FC007E
FC007E
FC007E
FC007E
FC00FC
7E00FC
7F03FC
3FFFF8
3FFFF0
1FFFF0
0FFFC0
03FF80
00FE00
ENDCHAR
STARTCHAR p
ENCODING 112
SWIDTH 450 0
DWIDTH 29 0
BBX 23 45 3 -11
BITMAP
FCFE00
FFFF80
FFFFE0
FFFFF0
FFFFF0
FFFFF8
FF03FC
FE00FC
FC00FC
FC007E
FC007E
FC007E
FC007E
FC007E
FC007E
FC007E
FC007E
FC007E
FC007E
FC007E
FC007E
FC007E
FC007E
FC007E
FC007E
FC00FC
FE00FC
FF03FC
FFFFF8
FFFFF0
FFFFF0
FFFFC0
FFFF80
FCFE00
FC0000
FC0000
FC0000
FC0000
FC0000
FC0000
FC0000
FC0000
FC0000
FC0000
FC0000
ENDCHAR
STARTCHAR q
ENCODING 113
SWIDTH 450 0
DWIDTH 29 0
BBX 23 45 3 -11
BITMAP
00FE7E
03FFFE
0FFFFE
1FFFFE
3FFFFE
3FFFFE
7F03FE
7E00FE
FC00FE
FC007E
FC007E
FC007E
FC007E
FC007E
FC007E
FC007E
FC007E
FC007E
FC007E
FC007E
FC007E
FC007E
FC007E
FC007E
FC007E
FC00FE
7E00FE
7F03FE
3FFFFE
3FFFFE
1FFFFE
0FFFFE
03FFFE
00FE7E
00007E
00007E
00007E
00007E
00007E
00007E
00007E
00007E
00007E
00007E
00007E
ENDCHAR
STARTCHAR r
ENCODING 114
SWIDTH 359 0
DWIDTH 23 0
BBX 17 34 3 0
BITMAP
FCFF80
FFFF80
FFFF80
FFFF80
FFFF80
FFFF80
FF1F80
FE1F80
FC0000
FC0000
FC0000
FC0000
FC0000
FC0000
FC0000
FC0000
FC0000
FC0000
FC0000
FC0000
FC0000
FC0000
FC0000
FC0000
FC0000
FC0000
FC0000
FC0000
FC0000
FC0000
FC0000
FC0000
FC0000
FC0000
ENDCHAR
STARTCHAR s
ENCODING 115
SWIDTH 404 0
DWIDTH 26 0
BBX 20 34 3 0
BITMAP
01F800
07FE00
1FFF80
3FFF80
3FFFC0
7FFFE0
7E0FE0
FC07F0
FC03F0
FC03F0
FC03F0
FC0000
FE0000
7F0000
7FF800
3FFE00
1FFF00
0FFF80
07FFC0
01FFE0
000FE0
0007F0
0003F0
FC03F0
FC03F0
FC03F0
FC07F0
7E0FE0
7FFFE0
3FFFC0
3FFF80
1FFF00
07FE00
01F800
ENDCHAR
STARTCHAR t
ENCODING 116
SWIDTH 272 0
DWIDTH 17 0
BBX 14 45 2 0
BITMAP
3F00
3F00
3F00
3F00
3F00
3F00
3F00
3F00
3F00
3F00
3F00
FFFC
FFFC
FFFC
FFFC
FFFC
FFFC
3F00
3F00
3F00
3F00
3F00
3F00
3F00
3F00
3F00
3F00
3F00
3F00
3F00
3F00
3F00
3F00
3F00
3F00
3F00
3F00
1F00
1F80
1FFC
1FFC
0FFC
07FC
03FC
00FC
ENDCHAR
STARTCHAR u
ENCODING 117
SWIDTH 450 0
DWIDTH 29 0
BBX 23 34 3 0
BITMAP
FC007E
FC007E
FC007E
FC007E
FC007E
FC007E
FC007E
FC007E
FC007E
FC007E
FC007E
FC007E
FC007E
FC007E
FC007E
FC007E
FC007E
FC007E
FC007E
FC007E
FC007E
FC007E
FC007E
FC007E
FC007E
FC00FE
7E00FE
7F03FE
3FFFFE
3FFFFE
1FFFFE
0FFFFE
03FFFE
00FE7E
ENDCHAR
STARTCHAR v
ENCODING 118
SWIDTH 450 0
DWIDTH 29 0
BBX 23 34 3 0
BITMAP
FC007E
FC007C
7C007C
7C00FC
7E00FC
7E00FC
7E00F8
3E00F8
3E01F8
3F01F8
3F01F8
3F01F0
1F01F0
1F03F0
1F83F0
1F83F0
1F83E0
0F83E0
0F87E0
0FC7E0
0FC7E0
0FC7C0
07C7C0
07CFC0
07EFC0
07EFC0
07EF80
03EF80
03FF80
03FF80
03FF80
03FF00
01FF00
01FF00
ENDCHAR
STARTCHAR w
ENCODING 119
SWIDTH 712 0
DWIDTH 46 0
BBX 40 34 3 0
BITMAP
FC007E003F
FC007E003E
FC00FE007E
7C00FE007E
7E00FF007E
7E00FF007E
7E00FF007C
7E01FF00FC
3E01FF00FC
3F01FF80FC
3F01FF80FC
3F01FF80F8
3F03FF81F8
1F03FF81F8
1F83FFC1F8
1F83FFC1F8
1F83EFC1F0
1F87EFC3F0
0F87E7C3F0
0FC7E7E3F0
0FC7E7E3F0
0FC7C7E3E0
0FCFC7E7E0
07CFC3E7E0
07EFC3F7E0
07EFC3F7E0
07EF83F7C0
07FF83FFC0
03FF81FFC0
03FF81FFC0
03FF81FFC0
03FF01FF80
03FF01FF80
01FF00FF80
ENDCHAR
STARTCHAR x
ENCODING 120
SWIDTH 450 0
DWIDTH 29 0
BBX 22 34 3 0
BITMAP
FC007C
7C00FC
7E00F8
3E01F8
3F01F0
1F03F0
1F83E0
0F87E0
0FC7C0
07CFC0
07EF80
03FF80
03FF00
01FF00
01FE00
00FE00
00FC00
00FC00
00FE00
01FE00
01FF00
03FF00
03FF80
07EF80
07EFC0
0FC7C0
0F87E0
1F83E0
1F03F0
3F01F0
3E01F8
7E00F8
7C00FC
FC007C
ENDCHAR
STARTCHAR y
ENCODING 121
SWIDTH 450 0
DWIDTH 29 0
BBX 23 45 3 -11
BITMAP
3F007E
1F007C
1F80FC
1F80FC
1F80FC
1F80FC
0F80F8
0FC1F8
0FC1F8
0FC1F8
0FC1F8
07C1F0
07E3F0
07E3F0
07E3F0
07E3F0
03E3E0
03E7E0
03F7E0
03F7E0
03F7E0
01F7C0
01FFC0
01FFC0
01FFC0
01FFC0
00FF80
00FF80
00FF80
00FF80
00FF80
007F00
007F00
007F00
007F00
007F00
003E00
003E00
087E00
1CFE00
3FFC00
7FFC00
FFF800
7FF000
1FC000
ENDCHAR
STARTCHAR z
ENCODING 122
SWIDTH 450 0
DWIDTH 29 0
BBX 23 34 3 0
BITMAP
FFFFFE
FFFFFE
FFFFFE
FFFFFE
FFFFFE
FFFFFE
0001FC
0003F8
0003F8
0007F0
000FE0
000FE0
001FC0
003F80
003F80
007F00
00FE00
01FE00
01FC00
03F800
07F800
07F000
0FE000
1FC000
1FC000
3F8000
7F0000
7F0000
FFFFFE
FFFFFE
FFFFFE
FFFFFE
FFFFFE
FFFFFE
ENDCHAR
STARTCHAR braceleft
ENCODING 123
SWIDTH 450 0
DWIDTH 29 0
BBX 15 51 7 -5
BITMAP
000E
003E
00FE
01FE
01FE
03F8
07F0
07E0
07C0
07C0
07C0
07C0
07C0
07C0
07C0
07C0
07C0
07C0
07C0
07C0
0FC0
1F80
3F80
FF00
FC00
F000
FC00
FE00
7F00
1F80
0FC0
0FC0
07C0
07C0
07C0
07C0
07C0
07C0
07C0
07C0
07C0
07C0
07C0
07E0
07E0
03F8
03FE
01FE
00FE
007E
001E
ENDCHAR
STARTCHAR bar
ENCODING 124
SWIDTH 450 0
DWIDTH 29 0
BBX 5 56 12 -6
BITMAP
F8
F8
F8
F8
F8
F8
F8
F8
F8
F8
F8
F8
F8
F8
F8
F8
F8
F8
F8
F8
F8
F8
F8
F8
F8
F8
F8
F8
F8
F8
F8
F8
F8
F8
F8
F8
F8
F8
F8
F8
F8
F8
F8
F8
F8
F8
F8
F8
F8
F8
F8
F8
F8
F8
F8
F8
ENDCHAR
STARTCHAR braceright
ENCODING 125
SWIDTH 450 0
DWIDTH 29 0
BBX 15 51 7 -5
BITMAP
E000
F800
FE00
FE00
FF00
3F80
1F80
0FC0
0FC0
07C0
07C0
07C0
07C0
07C0
07C0
07C0
07C0
07C0
07C0
07C0
07E0
03E0
03F8
01FE
00FE
001E
007E
01FE
01F8
03F0
07E0
07C0
07C0
07C0
07C0
07C0
07C0
07C0
07C0
07C0
07C0
07C0
07C0
0FC0
1F80
3F80
FF00
FF00
FE00
FC00
F000
ENDCHAR
STARTCHAR asciitilde
ENCODING 126
SWIDTH 450 0
DWIDTH 29 0
BBX 25 8 2 13
BITMAP
1C03E000
FE3FF800
FFFFFE00
7FFFFE00
3FFFFF00
1FFFFF80
0FFC3F80
01801800
ENDCHAR
STARTCHAR uni0080
ENCODING 128
SWIDTH 450 0
DWIDTH 29 0
BBX 5 33 12 3
BITMAP
20
20
20
20
20
20
20
20
20
70
F8
F8
F8
F8
F8
F8
F8
F8
F8
F8
F8
F8
F0
F0
F0
F0
F0
70
60
60
60
20
20
ENDCHAR
STARTCHAR uni0081
ENCODING 129
SWIDTH 450 0
DWIDTH 29 0
BBX 7 46 11 -2
BITMAP
10
10
30
38
38
38
38
38
38
38
38
30
30
30
30
30
30
30
7C
FE
FC
FC
7C
7C
7C
7C
7C
7C
7C
7C
7C
7C
7C
7C
7C
7C
7C
7C
7C
7C
78
30
30
30
10
30
ENDCHAR
STARTCHAR uni0082
ENCODING 130
SWIDTH 450 0
DWIDTH 29 0
BBX 23 48 3 -4
BITMAP
040080
060080
060080
060080
060080
060080
060080
060080
0601C0
0601C0
0601C0
0601C0
0601C0
0601C0
7E01FC
FFFFFE
FFFFFE
FF01FC
FF01FC
7F01FC
7F01FC
7F01F8
7F01F8
3F01F8
3F01F8
3F01F8
3F01F8
3F01F8
7F01F8
7F01FC
7F01FC
FF01FC
FF01FE
1FFFF0
1FFFF0
1FFFF0
1FFFF0
1FFFF0
1FFFF0
1FFFF0
1FFFF0
1FFFF0
1FFFF0
1FFFF0
1FFFF0
0FFFC0
007C00
007C00
ENDCHAR
STARTCHAR uni0083
ENCODING 131
SWIDTH 450 0
DWIDTH 29 0
BBX 22 22 5 6
BITMAP
3800E0
7C01F0
FE03F8
FF07FC
FF8FF8
7FDFF0
3FFFE0
1FFFC0
0FFF80
07FF00
03FE00
07FF00
0FFF80
1FFFC0
3FFFE0
7FDFF0
FF8FF8
FF07F8
FE03F8
7C01F0
3800E0
100000
ENDCHAR
STARTCHAR uni008C
ENCODING 140
SWIDTH 450 0
DWIDTH 29 0
BBX 21 28 4 4
BITMAP
FFFFF8
FFFFF8
FFFFF8
FFFFF8
7FFFE0
7FFFE0
7FFFE0
7FFFE0
3FFFE0
1FFFC0
0FFF80
07FF00
03FE00
01FC00
01FC00
03FE00
07FF00
0FFF80
1FFFC0
3FFFE0
7FFFE0
7FFFE0
7FFFE0
7FFFE0
FFFFF8
FFFFF8
FFFFF8
FFFFF8
ENDCHAR
STARTCHAR uni008D
ENCODING 141
SWIDTH 450 0
DWIDTH 29 0
BBX 27 29 1 5
BITMAP
FFFC0000
FFFE0000
001C0000
00380000
00700000
00E00000
01C00000
0380FFE0
0700FFE0
0E0001C0
1C000180
38000380
70000700
E0000E00
FFFE1C00
FFFE3800
00007000
00007FC0
0000FFE0
00007FE0
03FE0000
03FC0000
00380000
00700000
00700000
00E00000
01C00000
03FE0000
03FE0000
ENDCHAR
STARTCHAR uni008E
ENCODING 142
SWIDTH 450 0
DWIDTH 29 0
BBX 26 38 1 -2
BITMAP
001F0000
001F0000
001F0000
001F0000
001F0000
001F0000
001F0000
001F0000
001F0000
001F0000
001F0000
001F0000
001F0000
001F0000
001F0000
001F0000
001F0100
301F0380
781F07C0
FC1F0FC0
7E1F1FC0
3F1F3F80
1F9F7F00
0FDFFE00
07FFFC00
03FFF800
01FFF000
00FFE000
007FC000
003F8000
001F0000
000E0000
00040000
00000000
3FFFFF80
3FFFFF80
3FFFFF80
3FFFFF80
ENDCHAR
STARTCHAR uni0097
ENCODING 151
SWIDTH 450 0
DWIDTH 29 0
BBX 1 1 0 0
BITMAP
00
ENDCHAR
STARTCHAR uni0098
ENCODING 152
SWIDTH 450 0
DWIDTH 29 0
BBX 1 1 0 0
BITMAP
00
ENDCHAR
STARTCHAR uni0099
ENCODING 153
SWIDTH 450 0
DWIDTH 29 0
BBX 1 1 0 0
BITMAP
00
ENDCHAR
STARTCHAR uni009A
ENCODING 154
SWIDTH 450 0
DWIDTH 29 0
BBX 1 1 0 0
BITMAP
00
ENDCHAR
STARTCHAR uni009B
ENCODING 155
SWIDTH 450 0
DWIDTH 29 0
BBX 1 1 0 0
BITMAP
00
ENDCHAR
STARTCHAR uni009C
ENCODING 156
SWIDTH 450 0
DWIDTH 29 0
BBX 1 1 0 0
BITMAP
00
ENDCHAR
STARTCHAR uni009D
ENCODING 157
SWIDTH 450 0
DWIDTH 29 0
BBX 1 1 0 0
BITMAP
00
ENDCHAR
STARTCHAR uni009E
ENCODING 158
SWIDTH 450 0
DWIDTH 29 0
BBX 1 1 0 0
BITMAP
00
ENDCHAR
STARTCHAR uni009F
ENCODING 159
SWIDTH 450 0
DWIDTH 29 0
BBX 1 1 0 0
BITMAP
00
ENDCHAR
STARTCHAR uni00A0
ENCODING 160
SWIDTH 450 0
DWIDTH 29 0
BBX 1 1 0 0
BITMAP
00
ENDCHAR
STARTCHAR exclamdown
ENCODING 161
SWIDTH 450 0
DWIDTH 29 0
BBX 1 1 0 0
BITMAP
00
ENDCHAR
STARTCHAR cent
ENCODING 162
SWIDTH 450 0
DWIDTH 29 0
BBX 1 1 0 0
BITMAP
00
ENDCHAR
STARTCHAR sterling
ENCODING 163
SWIDTH 450 0
DWIDTH 29 0
BBX 23 45 3 0
BITMAP
007F80
01FFE0
03FFF0
07FFF8
0FFFF8
0FE3FC
1FC0FC
1F80FE
1F807E
1F807E
1F8000
1F8000
1F8000
1F8000
1F8000
1F8000
1F8000
1F8000
1F8000
FFFF00
FFFF00
FFFF00
FFFF00
FFFF00
FFFF00
1F8000
1F8000
1F8000
1F8000
1F8000
1F8000
1F8000
1F8000
1F8000
1F8000
1F8000
1F8000
1F8000
3F0000
FFFFFE
FFFFFE
FFFFFE
FFFFFE
FFFFFE
FFFFFE
ENDCHAR
STARTCHAR currency
ENCODING 164
SWIDTH 450 0
DWIDTH 29 0
BBX 1 1 0 0
BITMAP
00
ENDCHAR
STARTCHAR yen
ENCODING 165
SWIDTH 450 0
DWIDTH 29 0
BBX 1 1 0 0
BITMAP
00
ENDCHAR
STARTCHAR brokenbar
ENCODING 166
SWIDTH 450 0
DWIDTH 29 0
BBX 1 1 0 0
BITMAP
00
ENDCHAR
STARTCHAR section
ENCODING 167
SWIDTH 812 0
DWIDTH 52 0
BBX 46 34 3 0
BITMAP
0007E0007F00
000FE0007E00
000FC000FE00
001FC000FC00
001F8001FC00
003F8003FC00
007FC003FC00
007FC007FE00
00FFE007FE00
00FFF00FFF00
01FFF00FFF80
01FBF81FDF80
03F9F83F9FC0
07F1FC3F0FC0
07E0FC7F0FE0
0FE0FE7E07F0
0FC07FFE03F0
1FC03FFC03F8
3F803FFC01F8
3F001FF801F8
7F001FF800FC
7F000FF800FC
FF000FF800FC
FF000FF800FC
FF801FF800FC
FF801FFC01FC
FFC03FFC01F8
FFE07FFF07F8
EFFFFF7FFFF0
E7FFFE7FFFF0
C3FFFC3FFFE0
C1FFF81FFFC0
80FFF007FF00
001F8001FC00
ENDCHAR
STARTCHAR dieresis
ENCODING 168
SWIDTH 450 0
DWIDTH 29 0
BBX 1 1 0 0
BITMAP
00
ENDCHAR
STARTCHAR copyright
ENCODING 169
SWIDTH 716 0
DWIDTH 46 0
BBX 40 45 3 0
BITMAP
0003FFC000
000FFFF000
003FFFFC00
00FFFFFF00
01FFFFFF80
03FFC3FFC0
07FC007FE0
0FF0001FF0
1FE00007F0
1FC00003F8
3F80FF01FC
3F03FFC0FC
7F07FFE0FC
7E0FFFF07E
7E1FFFF07E
FC1FC7F87E
FC3F81F83F
FC3F00FC3F
FC3F00FC3F
FC0000FC3F
FC0000FC3F
FC0000FC3F
FC0000FC3F
FC0000FC3F
FC0000FC3F
FC3F00FC3F
FC3F00FC3F
FC3F01FC3F
FC3F81F83E
FC1FFFF87E
7E1FFFF07E
7E0FFFE07E
7F07FFC0FC
3F03FF81FC
3F80FE01F8
1FC00003F8
0FE0000FF0
0FF8001FE0
07FE007FE0
03FFFFFFC0
01FFFFFF00
007FFFFE00
003FFFFC00
000FFFF000
0001FF0000
ENDCHAR
STARTCHAR ordfeminine
ENCODING 170
SWIDTH 450 0
DWIDTH 29 0
BBX 1 1 0 0
BITMAP
00
ENDCHAR
STARTCHAR guillemotleft
ENCODING 171
SWIDTH 450 0
DWIDTH 29 0
BBX 22 22 3 10
BITMAP
00200C
00E01C
01E03C
03E07C
0FE1FC
1FC3F8
3F87F0
7F0FE0
FE1FC0
FC1F00
F01E00
F81F00
FC1F80
FE1FC0
7F8FE0
1FC3F8
0FE1FC
07E0FC
03E07C
00E03C
00600C
002004
ENDCHAR
STARTCHAR logicalnot
ENCODING 172
SWIDTH 450 0
DWIDTH 29 0
BBX 1 1 0 0
BITMAP
00
ENDCHAR
STARTCHAR uni00AD
ENCODING 173
SWIDTH 450 0
DWIDTH 29 0
BBX 1 1 0 0
BITMAP
00
ENDCHAR
STARTCHAR registered
ENCODING 174
SWIDTH 450 0
DWIDTH 29 0
BBX 1 1 0 0
BITMAP
00
ENDCHAR
STARTCHAR macron
ENCODING 175
SWIDTH 450 0
DWIDTH 29 0
BBX 1 1 0 0
BITMAP
00
ENDCHAR
STARTCHAR degree
ENCODING 176
SWIDTH 260 0
DWIDTH 17 0
BBX 10 10 3 41
BITMAP
1F00
3F80
7FC0
F1C0
E1C0
E1C0
73C0
7F80
3F80
0E00
ENDCHAR
STARTCHAR plusminus
ENCODING 177
SWIDTH 450 0
DWIDTH 29 0
BBX 1 1 0 0
BITMAP
00
ENDCHAR
STARTCHAR uni00B2
ENCODING 178
SWIDTH 450 0
DWIDTH 29 0
BBX 1 1 0 0
BITMAP
00
ENDCHAR
STARTCHAR uni00B3
ENCODING 179
SWIDTH 450 0
DWIDTH 29 0
BBX 1 1 0 0
BITMAP
00
ENDCHAR
STARTCHAR acute
ENCODING 180
SWIDTH 450 0
DWIDTH 29 0
BBX 1 1 0 0
BITMAP
00
ENDCHAR
STARTCHAR uni00B5
ENCODING 181
SWIDTH 450 0
DWIDTH 29 0
BBX 23 43 3 -9
BITMAP
FC007E
FC007E
FC007E
FC007E
FC007E
FC007E
FC007E
FC007E
FC007E
FC007E
FC007E
FC007E
FC007E
FC007E
FC007E
FC007E
FC007E
FC007E
FC007E
FC007E
FC007E
FC007E
FC007E
FC007E
FC007E
FC00FE
FE00FE
FF03FE
FFFFFE
FFFFFE
FFFFFE
FFFFFE
FFFFFE
FCFE7E
FC0000
FC0000
FC0000
FC0000
FC0000
FC0000
FC0000
FC0000
FC0000
ENDCHAR
STARTCHAR paragraph
ENCODING 182
SWIDTH 450 0
DWIDTH 29 0
BBX 1 1 0 0
BITMAP
00
ENDCHAR
STARTCHAR periodcentered
ENCODING 183
SWIDTH 450 0
DWIDTH 29 0
BBX 1 1 0 0
BITMAP
00
ENDCHAR
STARTCHAR cedilla
ENCODING 184
SWIDTH 450 0
DWIDTH 29 0
BBX 1 1 0 0
BITMAP
00
ENDCHAR
STARTCHAR uni00B9
ENCODING 185
SWIDTH 450 0
DWIDTH 29 0
BBX 1 1 0 0
BITMAP
00
ENDCHAR
STARTCHAR ordmasculine
ENCODING 186
SWIDTH 450 0
DWIDTH 29 0
BBX 1 1 0 0
BITMAP
00
ENDCHAR
STARTCHAR guillemotright
ENCODING 187
SWIDTH 450 0
DWIDTH 29 0
BBX 22 23 3 10
BITMAP
001000
C01800
F01C00
F81F00
FC1F80
FE1FC0
7F8FE0
1FC3F8
0FE1FC
07E0FC
03E07C
01E03C
01E03C
03E07C
07E0FC
1FE3FC
3F87F0
7F0FE0
FE1FC0
FC1F80
F01E00
E01C00
C01800
ENDCHAR
STARTCHAR onequarter
ENCODING 188
SWIDTH 450 0
DWIDTH 29 0
BBX 1 1 0 0
BITMAP
00
ENDCHAR
STARTCHAR onehalf
ENCODING 189
SWIDTH 450 0
DWIDTH 29 0
BBX 1 1 0 0
BITMAP
00
ENDCHAR
STARTCHAR threequarters
ENCODING 190
SWIDTH 450 0
DWIDTH 29 0
BBX 1 1 0 0
BITMAP
00
ENDCHAR
STARTCHAR questiondown
ENCODING 191
SWIDTH 450 0
DWIDTH 29 0
BBX 1 1 0 0
BITMAP
00
ENDCHAR
STARTCHAR Agrave
ENCODING 192
SWIDTH 450 0
DWIDTH 29 0
BBX 23 54 3 0
BITMAP
01F000
00F800
00FC00
007C00
003E00
001F00
000F00
000780
000000
007C00
00FC00
00FE00
00FE00
00FE00
00FE00
01FE00
01FF00
01FF00
01FF00
01FF00
03FF00
03FF80
03FF80
03FF80
03FF80
03FF80
07EF80
07EFC0
07EFC0
07CFC0
07C7C0
0FC7C0
0FC7E0
0FC7E0
0F87E0
0F83E0
1F83E0
1F83F0
1F83F0
1F83F0
1FFFF0
1FFFF0
3FFFF0
3FFFF8
3FFFF8
3FFFF8
3E00F8
7E00F8
7E00FC
7E00FC
7C00FC
7C007C
FC007C
FC007E
ENDCHAR
STARTCHAR Aacute
ENCODING 193
SWIDTH 450 0
DWIDTH 29 0
BBX 23 54 3 0
BITMAP
001F80
001F00
003E00
007C00
007C00
00F800
01F000
01E000
000000
007C00
00FC00
00FE00
00FE00
00FE00
00FE00
01FE00
01FF00
01FF00
01FF00
01FF00
03FF00
03FF80
03FF80
03FF80
03FF80
03FF80
07EF80
07EFC0
07EFC0
07CFC0
07C7C0
0FC7C0
0FC7E0
0FC7E0
0F87E0
0F83E0
1F83E0
1F83F0
1F83F0
1F83F0
1FFFF0
1FFFF0
3FFFF0
3FFFF8
3FFFF8
3FFFF8
3E00F8
7E00F8
7E00FC
7E00FC
7C00FC
7C007C
FC007C
FC007E
ENDCHAR
STARTCHAR Acircumflex
ENCODING 194
SWIDTH 450 0
DWIDTH 29 0
BBX 23 54 3 0
BITMAP
00FE00
01FE00
01FF00
03EF80
07C780
0787C0
0F83E0
1F01E0
000000
007C00
00FC00
00FE00
00FE00
00FE00
00FE00
01FE00
01FF00
01FF00
01FF00
01FF00
03FF00
03FF80
03FF80
03FF80
03FF80
03FF80
07EF80
07EFC0
07EFC0
07CFC0
07C7C0
0FC7C0
0FC7E0
0FC7E0
0F87E0
0F83E0
1F83E0
1F83F0
1F83F0
1F83F0
1FFFF0
1FFFF0
3FFFF0
3FFFF8
3FFFF8
3FFFF8
3E00F8
7E00F8
7E00FC
7E00FC
7C00FC
7C007C
FC007C
FC007E
ENDCHAR
STARTCHAR Atilde
ENCODING 195
SWIDTH 450 0
DWIDTH 29 0
BBX 1 1 0 0
BITMAP
00
ENDCHAR
STARTCHAR Adieresis
ENCODING 196
SWIDTH 450 0
DWIDTH 29 0
BBX 23 54 3 0
BITMAP
03C780
07EFC0
07EFC0
07EFC0
03C780
000000
000000
000000
000000
007C00
00FC00
00FE00
00FE00
00FE00
00FE00
01FE00
01FF00
01FF00
01FF00
01FF00
03FF00
03FF80
03FF80
03FF80
03FF80
03FF80
07EF80
07EFC0
07EFC0
07CFC0
07C7C0
0FC7C0
0FC7E0
0FC7E0
0F87E0
0F83E0
1F83E0
1F83F0
1F83F0
1F83F0
1FFFF0
1FFFF0
3FFFF0
3FFFF8
3FFFF8
3FFFF8
3E00F8
7E00F8
7E00FC
7E00FC
7C00FC
7C007C
FC007C
FC007E
ENDCHAR
STARTCHAR Aring
ENCODING 197
SWIDTH 450 0
DWIDTH 29 0
BBX 1 1 0 0
BITMAP
00
ENDCHAR
STARTCHAR AE
ENCODING 198
SWIDTH 450 0
DWIDTH 29 0
BBX 39 45 -5 0
BITMAP
0000FFFFFE
0000FFFFFE
0001FFFFFE
0001FFFFFE
0001FFFFFE
0003FFFFFE
0003FFFFFE
0003FFC000
0007FFC000
0007FFC000
0007DFC000
000FDFC000
000FDFC000
000F9FC000
001F9FC000
001F9FC000
003F1FC000
003F1FC000
003F1FC000
007E1FFFE0
007E1FFFE0
007E1FFFE0
00FC1FFFE0
00FC1FFFE0
00FC1FFFE0
01F81FFFE0
01F81FC000
01F81FC000
03F01FC000
03FFFFC000
07FFFFC000
07FFFFC000
07FFFFC000
0FFFFFC000
0FFFFFC000
0FC01FC000
1F801FC000
1F801FC000
1F801FC000
3F001FFFFE
3F001FFFFE
3F001FFFFE
7E001FFFFE
7E001FFFFE
FE001FFFFE
ENDCHAR
STARTCHAR Ccedilla
ENCODING 199
SWIDTH 450 0
DWIDTH 29 0
BBX 1 1 0 0
BITMAP
00
ENDCHAR
STARTCHAR Egrave
ENCODING 200
SWIDTH 450 0
DWIDTH 29 0
BBX 23 54 3 0
BITMAP
01F000
00F800
00FC00
007C00
003E00
001F00
000F00
000780
000000
FFFFFE
FFFFFE
FFFFFE
FFFFFE
FFFFFE
FFFFFE
FC0000
FC0000
FC0000
FC0000
FC0000
FC0000
FC0000
FC0000
FC0000
FC0000
FC0000
FC0000
FC0000
FC0000
FFFF80
FFFF80
FFFF80
FFFF80
FFFF80
FC0000
FC0000
FC0000
FC0000
FC0000
FC0000
FC0000
FC0000
FC0000
FC0000
FC0000
FC0000
FC0000
FC0000
FFFFFC
FFFFFE
FFFFFE
FFFFFE
FFFFFE
FFFFFE
ENDCHAR
STARTCHAR Eacute
ENCODING 201
SWIDTH 450 0
DWIDTH 29 0
BBX 23 54 3 0
BITMAP
001F80
001F00
003E00
007C00
007C00
00F800
01F000
01E000
000000
FFFFFE
FFFFFE
FFFFFE
FFFFFE
FFFFFE
FFFFFE
FC0000
FC0000
FC0000
FC0000
FC0000
FC0000
FC0000
FC0000
FC0000
FC0000
FC0000
FC0000
FC0000
FC0000
FFFF80
FFFF80
FFFF80
FFFF80
FFFF80
FC0000
FC0000
FC0000
FC0000
FC0000
FC0000
FC0000
FC0000
FC0000
FC0000
FC0000
FC0000
FC0000
FC0000
FFFFFC
FFFFFE
FFFFFE
FFFFFE
FFFFFE
FFFFFE
ENDCHAR
STARTCHAR Ecircumflex
ENCODING 202
SWIDTH 450 0
DWIDTH 29 0
BBX 23 54 3 0
BITMAP
00FE00
01FE00
01FF00
03EF80
07C780
0787C0
0F83E0
1F01E0
000000
FFFFFE
FFFFFE
FFFFFE
FFFFFE
FFFFFE
FFFFFE
FC0000
FC0000
FC0000
FC0000
FC0000
FC0000
FC0000
FC0000
FC0000
FC0000
FC0000
FC0000
FC0000
FC0000
FFFF80
FFFF80
FFFF80
FFFF80
FFFF80
FC0000
FC0000
FC0000
FC0000
FC0000
FC0000
FC0000
FC0000
FC0000
FC0000
FC0000
FC0000
FC0000
FC0000
FFFFFC
FFFFFE
FFFFFE
FFFFFE
FFFFFE
FFFFFE
ENDCHAR
STARTCHAR Edieresis
ENCODING 203
SWIDTH 450 0
DWIDTH 29 0
BBX 23 54 3 0
BITMAP
03C780
07EFC0
07EFC0
07EFC0
03C780
000000
000000
000000
000000
FFFFFE
FFFFFE
FFFFFE
FFFFFE
FFFFFE
FFFFFE
FC0000
FC0000
FC0000
FC0000
FC0000
FC0000
FC0000
FC0000
FC0000
FC0000
FC0000
FC0000
FC0000
FC0000
FFFF80
FFFF80
FFFF80
FFFF80
FFFF80
FC0000
FC0000
FC0000
FC0000
FC0000
FC0000
FC0000
FC0000
FC0000
FC0000
FC0000
FC0000
FC0000
FC0000
FFFFFC
FFFFFE
FFFFFE
FFFFFE
FFFFFE
FFFFFE
ENDCHAR
STARTCHAR Igrave
ENCODING 204
SWIDTH 450 0
DWIDTH 29 0
BBX 10 54 10 0
BITMAP
F800
7C00
7E00
3E00
1F00
0F80
0780
03C0
0000
3E00
3E00
3E00
3E00
3E00
3E00
3E00
3E00
3E00
3E00
3E00
3E00
3E00
3E00
3E00
3E00
3E00
3E00
3E00
3E00
3E00
3E00
3E00
3E00
3E00
3E00
3E00
3E00
3E00
3E00
3E00
3E00
3E00
3E00
3E00
3E00
3E00
3E00
3E00
3E00
3E00
3E00
3E00
3E00
3E00
ENDCHAR
STARTCHAR Iacute
ENCODING 205
SWIDTH 450 0
DWIDTH 29 0
BBX 10 54 10 0
BITMAP
0FC0
0F80
1F00
3E00
3E00
7C00
F800
F000
0000
3E00
3E00
3E00
3E00
3E00
3E00
3E00
3E00
3E00
3E00
3E00
3E00
3E00
3E00
3E00
3E00
3E00
3E00
3E00
3E00
3E00
3E00
3E00
3E00
3E00
3E00
3E00
3E00
3E00
3E00
3E00
3E00
3E00
3E00
3E00
3E00
3E00
3E00
3E00
3E00
3E00
3E00
3E00
3E00
3E00
ENDCHAR
STARTCHAR Icircumflex
ENCODING 206
SWIDTH 450 0
DWIDTH 29 0
BBX 16 54 6 0
BITMAP
07F0
0FF0
0FF8
1F7C
3E3C
3C3E
7C1F
F80F
0000
03E0
03E0
03E0
03E0
03E0
03E0
03E0
03E0
03E0
03E0
03E0
03E0
03E0
03E0
03E0
03E0
03E0
03E0
03E0
03E0
03E0
03E0
03E0
03E0
03E0
03E0
03E0
03E0
03E0
03E0
03E0
03E0
03E0
03E0
03E0
03E0
03E0
03E0
03E0
03E0
03E0
03E0
03E0
03E0
03E0
ENDCHAR
STARTCHAR Idieresis
ENCODING 207
SWIDTH 450 0
DWIDTH 29 0
BBX 13 54 8 0
BITMAP
78F0
FDF8
FDF8
FDF8
78F0
0000
0000
0000
0000
0F80
0F80
0F80
0F80
0F80
0F80
0F80
0F80
0F80
0F80
0F80
0F80
0F80
0F80
0F80
0F80
0F80
0F80
0F80
0F80
0F80
0F80
0F80
0F80
0F80
0F80
0F80
0F80
0F80
0F80
0F80
0F80
0F80
0F80
0F80
0F80
0F80
0F80
0F80
0F80
0F80
0F80
0F80
0F80
0F80
ENDCHAR
STARTCHAR Eth
ENCODING 208
SWIDTH 450 0
DWIDTH 29 0
BBX 1 1 0 0
BITMAP
00
ENDCHAR
STARTCHAR Ntilde
ENCODING 209
SWIDTH 450 0
DWIDTH 29 0
BBX 1 1 0 0
BITMAP
00
ENDCHAR
STARTCHAR Ograve
ENCODING 210
SWIDTH 450 0
DWIDTH 29 0
BBX 23 54 3 0
BITMAP
01F000
00F800
00FC00
007C00
003E00
001F00
000F00
000780
000000
007C00
03FF80
07FFC0
0FFFE0
1FFFF0
3FFFF8
7F83F8
7E01FC
7E00FC
FC007C
FC007E
FC007E
FC007E
FC007E
FC007E
FC007E
FC007E
FC007E
FC007E
FC007E
FC007E
FC007E
FC007E
FC007E
FC007E
FC007E
FC007E
FC007E
FC007E
FC007E
FC007E
FC007E
FC007E
FC007E
FC007E
FC007C
FE00FC
7E00FC
7F03FC
3FFFF8
3FFFF0
1FFFF0
0FFFE0
03FF80
00FE00
ENDCHAR
STARTCHAR Oacute
ENCODING 211
SWIDTH 450 0
DWIDTH 29 0
BBX 23 54 3 0
BITMAP
001F80
001F00
003E00
007C00
007C00
00F800
01F000
01E000
000000
007C00
03FF80
07FFC0
0FFFE0
1FFFF0
3FFFF8
7F83F8
7E01FC
7E00FC
FC007C
FC007E
FC007E
FC007E
FC007E
FC007E
FC007E
FC007E
FC007E
FC007E
FC007E
FC007E
FC007E
FC007E
FC007E
FC007E
FC007E
FC007E
FC007E
FC007E
FC007E
FC007E
FC007E
FC007E
FC007E
FC007E
FC007C
FE00FC
7E00FC
7F03FC
3FFFF8
3FFFF0
1FFFF0
0FFFE0
03FF80
00FE00
ENDCHAR
STARTCHAR Ocircumflex
ENCODING 212
SWIDTH 450 0
DWIDTH 29 0
BBX 23 54 3 0
BITMAP
00FE00
01FE00
01FF00
03EF80
07C780
0787C0
0F83E0
1F01E0
000000
007C00
03FF80
07FFC0
0FFFE0
1FFFF0
3FFFF8
7F83F8
7E01FC
7E00FC
FC007C
FC007E
FC007E
FC007E
FC007E
FC007E
FC007E
FC007E
FC007E
FC007E
FC007E
FC007E
FC007E
FC007E
FC007E
FC007E
FC007E
FC007E
FC007E
FC007E
FC007E
FC007E
FC007E
FC007E
FC007E
FC007E
FC007C
FE00FC
7E00FC
7F03FC
3FFFF8
3FFFF0
1FFFF0
0FFFE0
03FF80
00FE00
ENDCHAR
STARTCHAR Otilde
ENCODING 213
SWIDTH 450 0
DWIDTH 29 0
BBX 23 45 3 0
BITMAP
007C00
03FF80
07FFC0
0FFFE0
1FFFF0
3FFFF8
7F83F8
7E01FC
7E00FC
FC007C
FC007E
FC007E
FC007E
FC007E
FC007E
FC007E
FC007E
FC007E
FC007E
FC007E
FC007E
FC007E
FC007E
FC007E
FC007E
FC007E
FC007E
FC007E
FC007E
FC007E
FC007E
FC007E
FC007E
FC007E
FC007E
FC007C
FE00FC
7E00FC
7F03FC
3FFFF8
3FFFF0
1FFFF0
0FFFE0
03FF80
00FE00
ENDCHAR
STARTCHAR Odieresis
ENCODING 214
SWIDTH 450 0
DWIDTH 29 0
BBX 23 54 3 0
BITMAP
03C780
07EFC0
07EFC0
07EFC0
03C780
000000
000000
000000
000000
007C00
03FF80
07FFC0
0FFFE0
1FFFF0
3FFFF8
7F83F8
7E01FC
7E00FC
FC007C
FC007E
FC007E
FC007E
FC007E
FC007E
FC007E
FC007E
FC007E
FC007E
FC007E
FC007E
FC007E
FC007E
FC007E
FC007E
FC007E
FC007E
FC007E
FC007E
FC007E
FC007E
FC007E
FC007E
FC007E
FC007E
FC007C
FE00FC
7E00FC
7F03FC
3FFFF8
3FFFF0
1FFFF0
0FFFE0
03FF80
00FE00
ENDCHAR
STARTCHAR multiply
ENCODING 215
SWIDTH 450 0
DWIDTH 29 0
BBX 1 1 0 0
BITMAP
00
ENDCHAR
STARTCHAR Oslash
ENCODING 216
SWIDTH 450 0
DWIDTH 29 0
BBX 1 1 0 0
BITMAP
00
ENDCHAR
STARTCHAR Ugrave
ENCODING 217
SWIDTH 450 0
DWIDTH 29 0
BBX 23 54 3 0
BITMAP
01F000
00F800
00FC00
007C00
003E00
001F00
000F00
000780
000000
FC007E
FC007E
FC007E
FC007E
FC007E
FC007E
FC007E
FC007E
FC007E
FC007E
FC007E
FC007E
FC007E
FC007E
FC007E
FC007E
FC007E
FC007E
FC007E
FC007E
FC007E
FC007E
FC007E
FC007E
FC007E
FC007E
FC007E
FC007E
FC007E
FC007E
FC007E
FC007E
FC007E
FC007E
FC007E
FC007C
FE00FC
7E00FC
7F03FC
3FFFF8
3FFFF0
1FFFF0
0FFFE0
03FF80
00FE00
ENDCHAR
STARTCHAR Uacute
ENCODING 218
SWIDTH 450 0
DWIDTH 29 0
BBX 23 54 3 0
BITMAP
001F80
001F00
003E00
007C00
007C00
00F800
01F000
01E000
000000
FC007E
FC007E
FC007E
FC007E
FC007E
FC007E
FC007E
FC007E
FC007E
FC007E
FC007E
FC007E
FC007E
FC007E
FC007E
FC007E
FC007E
FC007E
FC007E
FC007E
FC007E
FC007E
FC007E
FC007E
FC007E
FC007E
FC007E
FC007E
FC007E
FC007E
FC007E
FC007E
FC007E
FC007E
FC007E
FC007C
FE00FC
7E00FC
7F03FC
3FFFF8
3FFFF0
1FFFF0
0FFFE0
03FF80
00FE00
ENDCHAR
STARTCHAR Ucircumflex
ENCODING 219
SWIDTH 450 0
DWIDTH 29 0
BBX 23 54 3 0
BITMAP
00FE00
01FE00
01FF00
03EF80
07C780
0787C0
0F83E0
1F01E0
000000
FC007E
FC007E
FC007E
FC007E
FC007E
FC007E
FC007E
FC007E
FC007E
FC007E
FC007E
FC007E
FC007E
FC007E
FC007E
FC007E
FC007E
FC007E
FC007E
FC007E
FC007E
FC007E
FC007E
FC007E
FC007E
FC007E
FC007E
FC007E
FC007E
FC007E
FC007E
FC007E
FC007E
FC007E
FC007E
FC007C
FE00FC
7E00FC
7F03FC
3FFFF8
3FFFF0
1FFFF0
0FFFE0
03FF80
00FE00
ENDCHAR
STARTCHAR Udieresis
ENCODING 220
SWIDTH 450 0
DWIDTH 29 0
BBX 23 54 3 0
BITMAP
03C780
07EFC0
07EFC0
07EFC0
03C780
000000
000000
000000
000000
FC007E
FC007E
FC007E
FC007E
FC007E
FC007E
FC007E
FC007E
FC007E
FC007E
FC007E
FC007E
FC007E
FC007E
FC007E
FC007E
FC007E
FC007E
FC007E
FC007E
FC007E
FC007E
FC007E
FC007E
FC007E
FC007E
FC007E
FC007E
FC007E
FC007E
FC007E
FC007E
FC007E
FC007E
FC007E
FC007C
FE00FC
7E00FC
7F03FC
3FFFF8
3FFFF0
1FFFF0
0FFFE0
03FF80
00FE00
ENDCHAR
STARTCHAR Yacute
ENCODING 221
SWIDTH 450 0
DWIDTH 29 0
BBX 1 1 0 0
BITMAP
00
ENDCHAR
STARTCHAR Thorn
ENCODING 222
SWIDTH 450 0
DWIDTH 29 0
BBX 1 1 0 0
BITMAP
00
ENDCHAR
STARTCHAR germandbls
ENCODING 223
SWIDTH 450 0
DWIDTH 29 0
BBX 23 45 3 0
BITMAP
03FC00
0FFF00
1FFF80
3FFFC0
7FFFE0
7F9FE0
7E07F0
FC03F0
FC03F0
FC03F0
FC03F0
FC03F0
FC07F0
FC0FE0
FC7FE0
FC7FC0
FC7FE0
FC7FF0
FC7FF8
FC7FF8
FC01FC
FC00FC
FC00FC
FC007E
FC007E
FC007E
FC007E
FC007E
FC007E
FC007E
FC007E
FC007E
FC007E
FC007E
FC007E
FC007E
FC00FC
FC00FC
FC03FC
FC7FF8
FC7FF0
FC7FF0
FC7FC0
FC7F80
FC7E00
ENDCHAR
STARTCHAR agrave
ENCODING 224
SWIDTH 492 0
DWIDTH 31 0
BBX 25 45 3 0
BITMAP
03F00000
01F80000
00F80000
007C0000
003E0000
001E0000
001F0000
000F8000
00000000
00000000
00000000
00FF0000
03FFC000
07FFE000
0FFFF000
1FFFF800
3FFFFC00
3F81FC00
3F00FC00
7E007E00
7E007E00
7E007E00
00007E00
00007E00
0000FE00
01FFFE00
07FFFE00
0FFFFE00
1FFFFE00
3FFFFE00
7FFF7E00
7F007E00
FE007E00
FC007E00
FC007E00
FC007E00
FC007E00
FC00FE00
7E01FF00
7FFFFF80
3FFFFF80
3FFFFF80
1FFFFF80
07FFC780
01FF0380
ENDCHAR
STARTCHAR aacute
ENCODING 225
SWIDTH 492 0
DWIDTH 31 0
BBX 25 45 3 0
BITMAP
001F0000
003F0000
007E0000
007C0000
00F80000
00F00000
01E00000
03E00000
00000000
00000000
00000000
00FF0000
03FFC000
07FFE000
0FFFF000
1FFFF800
3FFFFC00
3F81FC00
3F00FC00
7E007E00
7E007E00
7E007E00
00007E00
00007E00
0000FE00
01FFFE00
07FFFE00
0FFFFE00
1FFFFE00
3FFFFE00
7FFF7E00
7F007E00
FE007E00
FC007E00
FC007E00
FC007E00
FC007E00
FC00FE00
7E01FF00
7FFFFF80
3FFFFF80
3FFFFF80
1FFFFF80
07FFC780
01FF0380
ENDCHAR
STARTCHAR acircumflex
ENCODING 226
SWIDTH 492 0
DWIDTH 31 0
BBX 25 45 3 0
BITMAP
01FC0000
03FE0000
03FE0000
07DF0000
0F8F0000
0F0F8000
1F07C000
3E03C000
00000000
00000000
00000000
00FF0000
03FFC000
07FFE000
0FFFF000
1FFFF800
3FFFFC00
3F81FC00
3F00FC00
7E007E00
7E007E00
7E007E00
00007E00
00007E00
0000FE00
01FFFE00
07FFFE00
0FFFFE00
1FFFFE00
3FFFFE00
7FFF7E00
7F007E00
FE007E00
FC007E00
FC007E00
FC007E00
FC007E00
FC00FE00
7E01FF00
7FFFFF80
3FFFFF80
3FFFFF80
1FFFFF80
07FFC780
01FF0380
ENDCHAR
STARTCHAR atilde
ENCODING 227
SWIDTH 450 0
DWIDTH 29 0
BBX 1 1 0 0
BITMAP
00
ENDCHAR
STARTCHAR adieresis
ENCODING 228
SWIDTH 492 0
DWIDTH 31 0
BBX 25 44 3 0
BITMAP
01830000
07CF8000
07CFC000
07CFC000
07CF8000
03870000
00000000
00000000
00000000
00000000
00FF0000
03FFC000
07FFE000
0FFFF000
1FFFF800
3FFFFC00
3F81FC00
3F00FC00
7E007E00
7E007E00
7E007E00
00007E00
00007E00
0000FE00
01FFFE00
07FFFE00
0FFFFE00
1FFFFE00
3FFFFE00
7FFF7E00
7F007E00
FE007E00
FC007E00
FC007E00
FC007E00
FC007E00
FC00FE00
7E01FF00
7FFFFF80
3FFFFF80
3FFFFF80
1FFFFF80
07FFC780
01FF0380
ENDCHAR
STARTCHAR aring
ENCODING 229
SWIDTH 450 0
DWIDTH 29 0
BBX 1 1 0 0
BITMAP
00
ENDCHAR
STARTCHAR ae
ENCODING 230
SWIDTH 626 0
DWIDTH 40 0
BBX 34 34 3 0
BITMAP
01F807E000
07FE1FF800
1FFFFFFE00
3FFFFFFF00
3FFFFFFF00
7FFFFFFF80
7E0FFC1F80
FC07F80FC0
FC03F00FC0
FC03F00FC0
0003F00FC0
0003F00FC0
0003F00FC0
0003F00FC0
03FFFFFFC0
0FFFFFFFC0
1FFFFFFFC0
3FFFFFFFC0
7FFFFFFFC0
7FFFFFFFC0
FE03F00000
FC03F00000
FC03F00000
FC03F00000
FC03F00FC0
FC07F00FC0
FC07F80FC0
FE1FFC1F80
7FFFFFFF80
7FFFFFFF00
3FFFFFFF00
1FFF7FFE00
0FFC1FF800
03F007E000
ENDCHAR
STARTCHAR ccedilla
ENCODING 231
SWIDTH 450 0
DWIDTH 29 0
BBX 23 43 3 -9
BITMAP
007800
03FF00
07FFC0
0FFFE0
1FFFF0
3FFFF8
7F83FC
7F01FC
FE00FC
FC007E
FC007E
FC007E
FC0000
FC0000
FC0000
FC0000
FC0000
FC0000
FC0000
FC0000
FC0000
FC0000
FC0000
FC007E
FC007E
FC00FC
7E00FC
7F01FC
7FC7F8
3FFFF8
1FFFF0
0FFFE0
07FFC0
01FF00
007C00
007C00
007C00
0FFC00
0FFC00
0FFC00
0FFC00
0FFC00
0FF800
ENDCHAR
STARTCHAR egrave
ENCODING 232
SWIDTH 450 0
DWIDTH 29 0
BBX 23 45 3 0
BITMAP
03F000
01F800
00F800
007C00
003E00
001E00
001F00
000F80
000000
000000
000000
00FE00
03FF80
0FFFE0
1FFFF0
3FFFF0
3FFFF8
7F03FC
7E00FC
FC00FC
FC007E
FC007E
FC007E
FC007E
FC007E
FFFFFE
FFFFFE
FFFFFE
FFFFFE
FFFFFE
FFFFFE
FC0000
FC0000
FC0000
FC0000
FC0000
FC00E0
7E00F8
7F03FC
3FFFF8
3FFFF0
1FFFF0
0FFFC0
03FF80
00FE00
ENDCHAR
STARTCHAR eacute
ENCODING 233
SWIDTH 450 0
DWIDTH 29 0
BBX 23 45 3 0
BITMAP
001F00
003E00
007E00
007C00
00F800
01F000
01E000
03E000
000000
000000
000000
00FE00
03FF80
0FFFE0
1FFFF0
3FFFF0
3FFFF8
7F03FC
7E00FC
FC00FC
FC007E
FC007E
FC007E
FC007E
FC007E
FFFFFE
FFFFFE
FFFFFE
FFFFFE
FFFFFE
FFFFFE
FC0000
FC0000
FC0000
FC0000
FC0000
FC00E0
7E00F8
7F03FC
3FFFF8
3FFFF0
1FFFF0
0FFFC0
03FF80
00FE00
ENDCHAR
STARTCHAR ecircumflex
ENCODING 234
SWIDTH 450 0
DWIDTH 29 0
BBX 23 45 3 0
BITMAP
00FE00
01FE00
01FF00
03EF80
07C780
0787C0
0F83E0
1F01E0
000000
000000
000000
00FE00
03FF80
0FFFE0
1FFFF0
3FFFF0
3FFFF8
7F03FC
7E00FC
FC00FC
FC007E
FC007E
FC007E
FC007E
FC007E
FFFFFE
FFFFFE
FFFFFE
FFFFFE
FFFFFE
FFFFFE
FC0000
FC0000
FC0000
FC0000
FC0000
FC00E0
7E00F8
7F03FC
3FFFF8
3FFFF0
1FFFF0
0FFFC0
03FF80
00FE00
ENDCHAR
STARTCHAR edieresis
ENCODING 235
SWIDTH 450 0
DWIDTH 29 0
BBX 23 44 3 0
BITMAP
018300
07CF80
07CFC0
07CFC0
07CF80
038700
000000
000000
000000
000000
00FE00
03FF80
0FFFE0
1FFFF0
3FFFF0
3FFFF8
7F03FC
7E00FC
FC00FC
FC007E
FC007E
FC007E
FC007E
FC007E
FFFFFE
FFFFFE
FFFFFE
FFFFFE
FFFFFE
FFFFFE
FC0000
FC0000
FC0000
FC0000
FC0000
FC00E0
7E00F8
7F03FC
3FFFF8
3FFFF0
1FFFF0
0FFFC0
03FF80
00FE00
ENDCHAR
STARTCHAR igrave
ENCODING 236
SWIDTH 261 0
DWIDTH 17 0
BBX 11 45 2 0
BITMAP
FC00
7E00
3E00
1F00
0F80
0780
07C0
03E0
0000
0000
0000
3F00
3F00
3F00
3F00
3F00
3F00
3F00
3F00
3F00
3F00
3F00
3F00
3F00
3F00
3F00
3F00
3F00
3F00
3F00
3F00
3F00
3F00
3F00
3F00
3F00
3F00
3F00
3F80
1FE0
1FE0
0FE0
07E0
03E0
00E0
ENDCHAR
STARTCHAR iacute
ENCODING 237
SWIDTH 261 0
DWIDTH 17 0
BBX 11 45 3 0
BITMAP
07E0
0FC0
0F80
1F00
3E00
3E00
7C00
F800
0000
0000
0000
7E00
7E00
7E00
7E00
7E00
7E00
7E00
7E00
7E00
7E00
7E00
7E00
7E00
7E00
7E00
7E00
7E00
7E00
7E00
7E00
7E00
7E00
7E00
7E00
7E00
7E00
7E00
7F00
3FC0
3FC0
1FC0
0FC0
07C0
01C0
ENDCHAR
STARTCHAR icircumflex
ENCODING 238
SWIDTH 261 0
DWIDTH 17 0
BBX 16 45 -1 0
BITMAP
07E0
0FF0
1FF8
1FF8
3E7C
7C3E
781E
F00F
0000
0000
0000
07E0
07E0
07E0
07E0
07E0
07E0
07E0
07E0
07E0
07E0
07E0
07E0
07E0
07E0
07E0
07E0
07E0
07E0
07E0
07E0
07E0
07E0
07E0
07E0
07E0
07E0
07E0
07F0
03FC
03FC
01FC
00FC
007C
001C
ENDCHAR
STARTCHAR idieresis
ENCODING 239
SWIDTH 260 0
DWIDTH 17 0
BBX 13 45 2 0
BITMAP
78F0
F9F8
FDF8
F9F8
78F0
0000
0000
0000
0000
0000
0000
1F80
1F80
1F80
1F80
1F80
1F80
1F80
1F80
1F80
1F80
1F80
1F80
1F80
1F80
1F80
1F80
1F80
1F80
1F80
1F80
1F80
1F80
1F80
1F80
1F80
1F80
1F80
1F80
1FE0
0FE0
0FE0
07E0
03E0
00E0
ENDCHAR
STARTCHAR eth
ENCODING 240
SWIDTH 450 0
DWIDTH 29 0
BBX 1 1 0 0
BITMAP
00
ENDCHAR
STARTCHAR ntilde
ENCODING 241
SWIDTH 450 0
DWIDTH 29 0
BBX 1 1 0 0
BITMAP
00
ENDCHAR
STARTCHAR ograve
ENCODING 242
SWIDTH 450 0
DWIDTH 29 0
BBX 23 54 3 0
BITMAP
07F000
03F000
01F800
00F800
007C00
003E00
003E00
001F00
000000
000000
000000
000000
000000
000000
000000
000000
000000
000000
000000
000000
00FE00
03FF80
0FFFE0
1FFFF0
3FFFF0
3FFFF8
7F03FC
7E00FC
FC00FC
FC007E
FC007E
FC007E
FC007E
FC007E
FC007E
FC007E
FC007E
FC007E
FC007E
FC007E
FC007E
FC007E
FC007E
FC007E
FC007E
FC00FC
7E00FC
7F03FC
3FFFF8
3FFFF0
1FFFF0
0FFFC0
03FF80
00FE00
ENDCHAR
STARTCHAR oacute
ENCODING 243
SWIDTH 450 0
DWIDTH 29 0
BBX 23 45 3 0
BITMAP
001F00
003F00
007E00
007C00
00F800
00F000
01E000
03E000
000000
000000
000000
00FE00
03FF80
0FFFE0
1FFFF0
3FFFF0
3FFFF8
7F03FC
7E00FC
FC00FC
FC007E
FC007E
FC007E
FC007E
FC007E
FC007E
FC007E
FC007E
FC007E
FC007E
FC007E
FC007E
FC007E
FC007E
FC007E
FC007E
FC00FC
7E00FC
7F03FC
3FFFF8
3FFFF0
1FFFF0
0FFFC0
03FF80
00FE00
ENDCHAR
STARTCHAR ocircumflex
ENCODING 244
SWIDTH 450 0
DWIDTH 29 0
BBX 23 45 3 0
BITMAP
00FE00
01FE00
01FF00
03EF80
07C780
0787C0
0F83E0
1F01E0
000000
000000
000000
00FE00
03FF80
0FFFE0
1FFFF0
3FFFF0
3FFFF8
7F03FC
7E00FC
FC00FC
FC007E
FC007E
FC007E
FC007E
FC007E
FC007E
FC007E
FC007E
FC007E
FC007E
FC007E
FC007E
FC007E
FC007E
FC007E
FC007E
FC00FC
7E00FC
7F03FC
3FFFF8
3FFFF0
1FFFF0
0FFFC0
03FF80
00FE00
ENDCHAR
STARTCHAR otilde
ENCODING 245
SWIDTH 450 0
DWIDTH 29 0
BBX 23 34 3 0
BITMAP
00FE00
03FF80
0FFFE0
1FFFF0
3FFFF0
3FFFF8
7F03FC
7E00FC
FC00FC
FC007E
FC007E
FC007E
FC007E
FC007E
FC007E
FC007E
FC007E
FC007E
FC007E
FC007E
FC007E
FC007E
FC007E
FC007E
FC007E
FC00FC
7E00FC
7F03FC
3FFFF8
3FFFF0
1FFFF0
0FFFC0
03FF80
00FE00
ENDCHAR
STARTCHAR odieresis
ENCODING 246
SWIDTH 450 0
DWIDTH 29 0
BBX 23 44 3 0
BITMAP
018300
07CF80
07CFC0
07CFC0
07CF80
038700
000000
000000
000000
000000
00FE00
03FF80
0FFFE0
1FFFF0
3FFFF0
3FFFF8
7F03FC
7E00FC
FC00FC
FC007E
FC007E
FC007E
FC007E
FC007E
FC007E
FC007E
FC007E
FC007E
FC007E
FC007E
FC007E
FC007E
FC007E
FC007E
FC007E
FC00FC
7E00FC
7F03FC
3FFFF8
3FFFF0
1FFFF0
0FFFC0
03FF80
00FE00
ENDCHAR
STARTCHAR divide
ENCODING 247
SWIDTH 448 0
DWIDTH 29 0
BBX 17 25 6 5
BITMAP
01C000
03E000
07E000
07E000
03C000
018000
000000
000000
000000
000000
FFFF80
FFFF80
FFFF80
FFFF80
FFFF80
FFFF80
000000
000000
000000
000000
03C000
03E000
07E000
07E000
03C000
ENDCHAR
STARTCHAR oslash
ENCODING 248
SWIDTH 450 0
DWIDTH 29 0
BBX 23 45 3 0
BITMAP
01FF7C
07FFFC
0FFFFC
1FFFF8
3FFFF8
7FC7F8
7F03FC
7E03FC
FC03FC
FC07FE
FC07FE
FC07FE
FC0FFE
FC0FFE
FC1FFE
FC1FFE
FC1F7E
FC3F7E
FC3F7E
FC3E7E
FC7E7E
FC7E7E
FCFC7E
FCFC7E
FCF87E
FDF87E
FDF87E
FDF07E
FFF07E
FFF07E
FFE07E
FFE07E
FFC07E
FFC07E
FFC07E
FF807E
FF80FC
7F80FC
7F03FC
3FFFF8
3FFFF0
7FFFF0
7FFFC0
7FFF80
FCFE00
ENDCHAR
STARTCHAR ugrave
ENCODING 249
SWIDTH 450 0
DWIDTH 29 0
BBX 23 45 3 0
BITMAP
03F000
01F800
00F800
007C00
003E00
001E00
001F00
000F80
000000
000000
000000
FC007E
FC007E
FC007E
FC007E
FC007E
FC007E
FC007E
FC007E
FC007E
FC007E
FC007E
FC007E
FC007E
FC007E
FC007E
FC007E
FC007E
FC007E
FC007E
FC007E
FC007E
FC007E
FC007E
FC007E
FC007E
FC00FE
7E00FE
7F03FE
3FFFFE
3FFFFE
1FFFFE
0FFFFE
03FFFE
00FE7E
ENDCHAR
STARTCHAR uacute
ENCODING 250
SWIDTH 450 0
DWIDTH 29 0
BBX 23 45 3 0
BITMAP
001F00
003E00
007E00
007C00
00F800
01F000
01E000
03E000
000000
000000
000000
FC007E
FC007E
FC007E
FC007E
FC007E
FC007E
FC007E
FC007E
FC007E
FC007E
FC007E
FC007E
FC007E
FC007E
FC007E
FC007E
FC007E
FC007E
FC007E
FC007E
FC007E
FC007E
FC007E
FC007E
FC007E
FC00FE
7E00FE
7F03FE
3FFFFE
3FFFFE
1FFFFE
0FFFFE
03FFFE
00FE7E
ENDCHAR
STARTCHAR ucircumflex
ENCODING 251
SWIDTH 450 0
DWIDTH 29 0
BBX 23 45 3 0
BITMAP
00FE00
01FE00
01FF00
03EF80
07C780
0787C0
0F83E0
1F01E0
000000
000000
000000
FC007E
FC007E
FC007E
FC007E
FC007E
FC007E
FC007E
FC007E
FC007E
FC007E
FC007E
FC007E
FC007E
FC007E
FC007E
FC007E
FC007E
FC007E
FC007E
FC007E
FC007E
FC007E
FC007E
FC007E
FC007E
FC00FE
7E00FE
7F03FE
3FFFFE
3FFFFE
1FFFFE
0FFFFE
03FFFE
00FE7E
ENDCHAR
STARTCHAR udieresis
ENCODING 252
SWIDTH 450 0
DWIDTH 29 0
BBX 23 44 3 0
BITMAP
018300
07CF80
07CFC0
07CFC0
07CF80
038700
000000
000000
000000
000000
FC007E
FC007E
FC007E
FC007E
FC007E
FC007E
FC007E
FC007E
FC007E
FC007E
FC007E
FC007E
FC007E
FC007E
FC007E
FC007E
FC007E
FC007E
FC007E
FC007E
FC007E
FC007E
FC007E
FC007E
FC007E
FC00FE
7E00FE
7F03FE
3FFFFE
3FFFFE
1FFFFE
0FFFFE
03FFFE
00FE7E
ENDCHAR
STARTCHAR yacute
ENCODING 253
SWIDTH 450 0
DWIDTH 29 0
BBX 1 1 0 0
BITMAP
00
ENDCHAR
STARTCHAR thorn
ENCODING 254
SWIDTH 450 0
DWIDTH 29 0
BBX 1 1 0 0
BITMAP
00
ENDCHAR
STARTCHAR ydieresis
ENCODING 255
SWIDTH 450 0
DWIDTH 29 0
BBX 1 1 0 0
BITMAP
00
ENDCHAR
STARTCHAR Amacron
ENCODING 256
SWIDTH 450 0
DWIDTH 29 0
BBX 1 1 0 0
BITMAP
00
ENDCHAR
STARTCHAR amacron
ENCODING 257
SWIDTH 450 0
DWIDTH 29 0
BBX 1 1 0 0
BITMAP
00
ENDCHAR
STARTCHAR Abreve
ENCODING 258
SWIDTH 450 0
DWIDTH 29 0
BBX 1 1 0 0
BITMAP
00
ENDCHAR
STARTCHAR abreve
ENCODING 259
SWIDTH 450 0
DWIDTH 29 0
BBX 1 1 0 0
BITMAP
00
ENDCHAR
STARTCHAR Aogonek
ENCODING 260
SWIDTH 450 0
DWIDTH 29 0
BBX 1 1 0 0
BITMAP
00
ENDCHAR
STARTCHAR aogonek
ENCODING 261
SWIDTH 450 0
DWIDTH 29 0
BBX 1 1 0 0
BITMAP
00
ENDCHAR
STARTCHAR Cacute
ENCODING 262
SWIDTH 450 0
DWIDTH 29 0
BBX 1 1 0 0
BITMAP
00
ENDCHAR
STARTCHAR cacute
ENCODING 263
SWIDTH 450 0
DWIDTH 29 0
BBX 1 1 0 0
BITMAP
00
ENDCHAR
STARTCHAR Ccircumflex
ENCODING 264
SWIDTH 450 0
DWIDTH 29 0
BBX 1 1 0 0
BITMAP
00
ENDCHAR
STARTCHAR ccircumflex
ENCODING 265
SWIDTH 450 0
DWIDTH 29 0
BBX 1 1 0 0
BITMAP
00
ENDCHAR
STARTCHAR Cdotaccent
ENCODING 266
SWIDTH 450 0
DWIDTH 29 0
BBX 1 1 0 0
BITMAP
00
ENDCHAR
STARTCHAR cdotaccent
ENCODING 267
SWIDTH 450 0
DWIDTH 29 0
BBX 1 1 0 0
BITMAP
00
ENDCHAR
STARTCHAR Ccaron
ENCODING 268
SWIDTH 450 0
DWIDTH 29 0
BBX 1 1 0 0
BITMAP
00
ENDCHAR
STARTCHAR ccaron
ENCODING 269
SWIDTH 450 0
DWIDTH 29 0
BBX 1 1 0 0
BITMAP
00
ENDCHAR
STARTCHAR Dcaron
ENCODING 270
SWIDTH 450 0
DWIDTH 29 0
BBX 1 1 0 0
BITMAP
00
ENDCHAR
STARTCHAR dcaron
ENCODING 271
SWIDTH 450 0
DWIDTH 29 0
BBX 1 1 0 0
BITMAP
00
ENDCHAR
STARTCHAR Dcroat
ENCODING 272
SWIDTH 450 0
DWIDTH 29 0
BBX 1 1 0 0
BITMAP
00
ENDCHAR
STARTCHAR dcroat
ENCODING 273
SWIDTH 450 0
DWIDTH 29 0
BBX 1 1 0 0
BITMAP
00
ENDCHAR
STARTCHAR Emacron
ENCODING 274
SWIDTH 450 0
DWIDTH 29 0
BBX 1 1 0 0
BITMAP
00
ENDCHAR
STARTCHAR emacron
ENCODING 275
SWIDTH 450 0
DWIDTH 29 0
BBX 1 1 0 0
BITMAP
00
ENDCHAR
STARTCHAR Ebreve
ENCODING 276
SWIDTH 450 0
DWIDTH 29 0
BBX 1 1 0 0
BITMAP
00
ENDCHAR
STARTCHAR ebreve
ENCODING 277
SWIDTH 450 0
DWIDTH 29 0
BBX 1 1 0 0
BITMAP
00
ENDCHAR
STARTCHAR Edotaccent
ENCODING 278
SWIDTH 450 0
DWIDTH 29 0
BBX 1 1 0 0
BITMAP
00
ENDCHAR
STARTCHAR edotaccent
ENCODING 279
SWIDTH 450 0
DWIDTH 29 0
BBX 1 1 0 0
BITMAP
00
ENDCHAR
STARTCHAR Eogonek
ENCODING 280
SWIDTH 450 0
DWIDTH 29 0
BBX 1 1 0 0
BITMAP
00
ENDCHAR
STARTCHAR eogonek
ENCODING 281
SWIDTH 450 0
DWIDTH 29 0
BBX 1 1 0 0
BITMAP
00
ENDCHAR
STARTCHAR Ecaron
ENCODING 282
SWIDTH 450 0
DWIDTH 29 0
BBX 1 1 0 0
BITMAP
00
ENDCHAR
STARTCHAR ecaron
ENCODING 283
SWIDTH 450 0
DWIDTH 29 0
BBX 1 1 0 0
BITMAP
00
ENDCHAR
STARTCHAR Gcircumflex
ENCODING 284
SWIDTH 450 0
DWIDTH 29 0
BBX 1 1 0 0
BITMAP
00
ENDCHAR
STARTCHAR gcircumflex
ENCODING 285
SWIDTH 450 0
DWIDTH 29 0
BBX 1 1 0 0
BITMAP
00
ENDCHAR
STARTCHAR Gbreve
ENCODING 286
SWIDTH 450 0
DWIDTH 29 0
BBX 1 1 0 0
BITMAP
00
ENDCHAR
STARTCHAR gbreve
ENCODING 287
SWIDTH 450 0
DWIDTH 29 0
BBX 1 1 0 0
BITMAP
00
ENDCHAR
STARTCHAR Gdotaccent
ENCODING 288
SWIDTH 450 0
DWIDTH 29 0
BBX 1 1 0 0
BITMAP
00
ENDCHAR
STARTCHAR gdotaccent
ENCODING 289
SWIDTH 450 0
DWIDTH 29 0
BBX 1 1 0 0
BITMAP
00
ENDCHAR
STARTCHAR Gcommaaccent
ENCODING 290
SWIDTH 450 0
DWIDTH 29 0
BBX 1 1 0 0
BITMAP
00
ENDCHAR
STARTCHAR gcommaaccent
ENCODING 291
SWIDTH 450 0
DWIDTH 29 0
BBX 1 1 0 0
BITMAP
00
ENDCHAR
STARTCHAR Hcircumflex
ENCODING 292
SWIDTH 450 0
DWIDTH 29 0
BBX 1 1 0 0
BITMAP
00
ENDCHAR
STARTCHAR hcircumflex
ENCODING 293
SWIDTH 450 0
DWIDTH 29 0
BBX 1 1 0 0
BITMAP
00
ENDCHAR
STARTCHAR Hbar
ENCODING 294
SWIDTH 450 0
DWIDTH 29 0
BBX 1 1 0 0
BITMAP
00
ENDCHAR
STARTCHAR hbar
ENCODING 295
SWIDTH 450 0
DWIDTH 29 0
BBX 1 1 0 0
BITMAP
00
ENDCHAR
STARTCHAR Itilde
ENCODING 296
SWIDTH 450 0
DWIDTH 29 0
BBX 1 1 0 0
BITMAP
00
ENDCHAR
STARTCHAR itilde
ENCODING 297
SWIDTH 450 0
DWIDTH 29 0
BBX 1 1 0 0
BITMAP
00
ENDCHAR
STARTCHAR Imacron
ENCODING 298
SWIDTH 450 0
DWIDTH 29 0
BBX 1 1 0 0
BITMAP
00
ENDCHAR
STARTCHAR imacron
ENCODING 299
SWIDTH 450 0
DWIDTH 29 0
BBX 1 1 0 0
BITMAP
00
ENDCHAR
STARTCHAR Ibreve
ENCODING 300
SWIDTH 450 0
DWIDTH 29 0
BBX 1 1 0 0
BITMAP
00
ENDCHAR
STARTCHAR ibreve
ENCODING 301
SWIDTH 450 0
DWIDTH 29 0
BBX 1 1 0 0
BITMAP
00
ENDCHAR
STARTCHAR Iogonek
ENCODING 302
SWIDTH 450 0
DWIDTH 29 0
BBX 1 1 0 0
BITMAP
00
ENDCHAR
STARTCHAR iogonek
ENCODING 303
SWIDTH 450 0
DWIDTH 29 0
BBX 1 1 0 0
BITMAP
00
ENDCHAR
STARTCHAR Idotaccent
ENCODING 304
SWIDTH 450 0
DWIDTH 29 0
BBX 1 1 0 0
BITMAP
00
ENDCHAR
STARTCHAR dotlessi
ENCODING 305
SWIDTH 450 0
DWIDTH 29 0
BBX 1 1 0 0
BITMAP
00
ENDCHAR
STARTCHAR IJ
ENCODING 306
SWIDTH 450 0
DWIDTH 29 0
BBX 1 1 0 0
BITMAP
00
ENDCHAR
STARTCHAR ij
ENCODING 307
SWIDTH 450 0
DWIDTH 29 0
BBX 1 1 0 0
BITMAP
00
ENDCHAR
STARTCHAR Jcircumflex
ENCODING 308
SWIDTH 450 0
DWIDTH 29 0
BBX 1 1 0 0
BITMAP
00
ENDCHAR
STARTCHAR jcircumflex
ENCODING 309
SWIDTH 450 0
DWIDTH 29 0
BBX 1 1 0 0
BITMAP
00
ENDCHAR
STARTCHAR Kcommaaccent
ENCODING 310
SWIDTH 450 0
DWIDTH 29 0
BBX 1 1 0 0
BITMAP
00
ENDCHAR
STARTCHAR kcommaaccent
ENCODING 311
SWIDTH 450 0
DWIDTH 29 0
BBX 1 1 0 0
BITMAP
00
ENDCHAR
STARTCHAR kgreenlandic
ENCODING 312
SWIDTH 450 0
DWIDTH 29 0
BBX 1 1 0 0
BITMAP
00
ENDCHAR
STARTCHAR Lacute
ENCODING 313
SWIDTH 450 0
DWIDTH 29 0
BBX 1 1 0 0
BITMAP
00
ENDCHAR
STARTCHAR lacute
ENCODING 314
SWIDTH 450 0
DWIDTH 29 0
BBX 1 1 0 0
BITMAP
00
ENDCHAR
STARTCHAR Lcommaaccent
ENCODING 315
SWIDTH 450 0
DWIDTH 29 0
BBX 1 1 0 0
BITMAP
00
ENDCHAR
STARTCHAR lcommaaccent
ENCODING 316
SWIDTH 450 0
DWIDTH 29 0
BBX 1 1 0 0
BITMAP
00
ENDCHAR
STARTCHAR Lcaron
ENCODING 317
SWIDTH 450 0
DWIDTH 29 0
BBX 1 1 0 0
BITMAP
00
ENDCHAR
STARTCHAR lcaron
ENCODING 318
SWIDTH 450 0
DWIDTH 29 0
BBX 1 1 0 0
BITMAP
00
ENDCHAR
STARTCHAR Ldot
ENCODING 319
SWIDTH 450 0
DWIDTH 29 0
BBX 1 1 0 0
BITMAP
00
ENDCHAR
STARTCHAR ldot
ENCODING 320
SWIDTH 450 0
DWIDTH 29 0
BBX 1 1 0 0
BITMAP
00
ENDCHAR
STARTCHAR Lslash
ENCODING 321
SWIDTH 450 0
DWIDTH 29 0
BBX 1 1 0 0
BITMAP
00
ENDCHAR
STARTCHAR lslash
ENCODING 322
SWIDTH 450 0
DWIDTH 29 0
BBX 1 1 0 0
BITMAP
00
ENDCHAR
STARTCHAR Nacute
ENCODING 323
SWIDTH 450 0
DWIDTH 29 0
BBX 1 1 0 0
BITMAP
00
ENDCHAR
STARTCHAR nacute
ENCODING 324
SWIDTH 450 0
DWIDTH 29 0
BBX 1 1 0 0
BITMAP
00
ENDCHAR
STARTCHAR Ncommaaccent
ENCODING 325
SWIDTH 450 0
DWIDTH 29 0
BBX 1 1 0 0
BITMAP
00
ENDCHAR
STARTCHAR ncommaaccent
ENCODING 326
SWIDTH 450 0
DWIDTH 29 0
BBX 1 1 0 0
BITMAP
00
ENDCHAR
STARTCHAR Ncaron
ENCODING 327
SWIDTH 450 0
DWIDTH 29 0
BBX 1 1 0 0
BITMAP
00
ENDCHAR
STARTCHAR ncaron
ENCODING 328
SWIDTH 450 0
DWIDTH 29 0
BBX 1 1 0 0
BITMAP
00
ENDCHAR
STARTCHAR napostrophe
ENCODING 329
SWIDTH 450 0
DWIDTH 29 0
BBX 1 1 0 0
BITMAP
00
ENDCHAR
STARTCHAR Eng
ENCODING 330
SWIDTH 450 0
DWIDTH 29 0
BBX 1 1 0 0
BITMAP
00
ENDCHAR
STARTCHAR eng
ENCODING 331
SWIDTH 450 0
DWIDTH 29 0
BBX 1 1 0 0
BITMAP
00
ENDCHAR
STARTCHAR Omacron
ENCODING 332
SWIDTH 450 0
DWIDTH 29 0
BBX 1 1 0 0
BITMAP
00
ENDCHAR
STARTCHAR omacron
ENCODING 333
SWIDTH 450 0
DWIDTH 29 0
BBX 1 1 0 0
BITMAP
00
ENDCHAR
STARTCHAR Obreve
ENCODING 334
SWIDTH 450 0
DWIDTH 29 0
BBX 1 1 0 0
BITMAP
00
ENDCHAR
STARTCHAR obreve
ENCODING 335
SWIDTH 450 0
DWIDTH 29 0
BBX 1 1 0 0
BITMAP
00
ENDCHAR
STARTCHAR Ohungarumlaut
ENCODING 336
SWIDTH 450 0
DWIDTH 29 0
BBX 1 1 0 0
BITMAP
00
ENDCHAR
STARTCHAR ohungarumlaut
ENCODING 337
SWIDTH 450 0
DWIDTH 29 0
BBX 1 1 0 0
BITMAP
00
ENDCHAR
STARTCHAR OE
ENCODING 338
SWIDTH 450 0
DWIDTH 29 0
BBX 33 45 -2 0
BITMAP
03E3FFFF80
0FFBFFFF80
1FFFFFFF80
3FFFFFFF80
7FFFFFFF80
FFFFFFFF80
FFFFFFFF80
FE1FF00000
FC0FF00000
FC0FF00000
FC0FF00000
FC0FF00000
FC0FF00000
FC0FF00000
FC0FF00000
FC0FF00000
FC0FF00000
FC0FF00000
FC0FF00000
FC0FFFFC00
FC0FFFFC00
FC0FFFFC00
FC0FFFFC00
FC0FFFFC00
FC0FFFFC00
FC0FFFFC00
FC0FF00000
FC0FF00000
FC0FF00000
FC0FF00000
FC0FF00000
FC0FF00000
FC0FF00000
FC0FF00000
FC0FF00000
FC0FF00000
FC0FF00000
FE0FF00000
FF3FF00000
FFFFFFFF80
7FFFFFFF80
7FFFFFFF80
3FFFFFFF80
1FFBFFFF80
07F3FFFF80
ENDCHAR
STARTCHAR oe
ENCODING 339
SWIDTH 626 0
DWIDTH 40 0
BBX 34 34 3 0
BITMAP
01F807E000
07FE1FF800
1FFFFFFE00
3FFFFFFF00
3FFFFFFF00
7FFFFFFF80
7E0FF81F80
FC07F80FC0
FC03F00FC0
FC03F00FC0
FC03F00FC0
FC03F00FC0
FC03F00FC0
FC03F00FC0
FC03FFFFC0
FC03FFFFC0
FC03FFFFC0
FC03FFFFC0
FC03FFFFC0
FC03FFFFC0
FC03F00000
FC03F00000
FC03F00000
FC03F00000
FC03F00FC0
FC03F00FC0
FC07F80FC0
7E0FFC1F80
7FFFFFFF80
3FFFFFFF00
3FFFFFFF00
1FFF3FFE00
07FE1FF800
01F807E000
ENDCHAR
STARTCHAR Racute
ENCODING 340
SWIDTH 450 0
DWIDTH 29 0
BBX 1 1 0 0
BITMAP
00
ENDCHAR
STARTCHAR racute
ENCODING 341
SWIDTH 450 0
DWIDTH 29 0
BBX 1 1 0 0
BITMAP
00
ENDCHAR
STARTCHAR Rcommaaccent
ENCODING 342
SWIDTH 450 0
DWIDTH 29 0
BBX 1 1 0 0
BITMAP
00
ENDCHAR
STARTCHAR rcommaaccent
ENCODING 343
SWIDTH 450 0
DWIDTH 29 0
BBX 1 1 0 0
BITMAP
00
ENDCHAR
STARTCHAR Rcaron
ENCODING 344
SWIDTH 450 0
DWIDTH 29 0
BBX 1 1 0 0
BITMAP
00
ENDCHAR
STARTCHAR rcaron
ENCODING 345
SWIDTH 450 0
DWIDTH 29 0
BBX 1 1 0 0
BITMAP
00
ENDCHAR
STARTCHAR Sacute
ENCODING 346
SWIDTH 450 0
DWIDTH 29 0
BBX 1 1 0 0
BITMAP
00
ENDCHAR
STARTCHAR sacute
ENCODING 347
SWIDTH 450 0
DWIDTH 29 0
BBX 1 1 0 0
BITMAP
00
ENDCHAR
STARTCHAR Scircumflex
ENCODING 348
SWIDTH 450 0
DWIDTH 29 0
BBX 1 1 0 0
BITMAP
00
ENDCHAR
STARTCHAR scircumflex
ENCODING 349
SWIDTH 450 0
DWIDTH 29 0
BBX 1 1 0 0
BITMAP
00
ENDCHAR
STARTCHAR Scedilla
ENCODING 350
SWIDTH 450 0
DWIDTH 29 0
BBX 1 1 0 0
BITMAP
00
ENDCHAR
STARTCHAR scedilla
ENCODING 351
SWIDTH 450 0
DWIDTH 29 0
BBX 1 1 0 0
BITMAP
00
ENDCHAR
STARTCHAR Scaron
ENCODING 352
SWIDTH 450 0
DWIDTH 29 0
BBX 1 1 0 0
BITMAP
00
ENDCHAR
STARTCHAR scaron
ENCODING 353
SWIDTH 450 0
DWIDTH 29 0
BBX 1 1 0 0
BITMAP
00
ENDCHAR
STARTCHAR Tcommaaccent
ENCODING 354
SWIDTH 450 0
DWIDTH 29 0
BBX 1 1 0 0
BITMAP
00
ENDCHAR
STARTCHAR tcommaaccent
ENCODING 355
SWIDTH 450 0
DWIDTH 29 0
BBX 1 1 0 0
BITMAP
00
ENDCHAR
STARTCHAR Tcaron
ENCODING 356
SWIDTH 450 0
DWIDTH 29 0
BBX 1 1 0 0
BITMAP
00
ENDCHAR
STARTCHAR tcaron
ENCODING 357
SWIDTH 450 0
DWIDTH 29 0
BBX 1 1 0 0
BITMAP
00
ENDCHAR
STARTCHAR Tbar
ENCODING 358
SWIDTH 450 0
DWIDTH 29 0
BBX 1 1 0 0
BITMAP
00
ENDCHAR
STARTCHAR tbar
ENCODING 359
SWIDTH 450 0
DWIDTH 29 0
BBX 1 1 0 0
BITMAP
00
ENDCHAR
STARTCHAR Utilde
ENCODING 360
SWIDTH 450 0
DWIDTH 29 0
BBX 1 1 0 0
BITMAP
00
ENDCHAR
STARTCHAR utilde
ENCODING 361
SWIDTH 450 0
DWIDTH 29 0
BBX 1 1 0 0
BITMAP
00
ENDCHAR
STARTCHAR Umacron
ENCODING 362
SWIDTH 450 0
DWIDTH 29 0
BBX 1 1 0 0
BITMAP
00
ENDCHAR
STARTCHAR umacron
ENCODING 363
SWIDTH 450 0
DWIDTH 29 0
BBX 1 1 0 0
BITMAP
00
ENDCHAR
STARTCHAR Ubreve
ENCODING 364
SWIDTH 450 0
DWIDTH 29 0
BBX 1 1 0 0
BITMAP
00
ENDCHAR
STARTCHAR ubreve
ENCODING 365
SWIDTH 450 0
DWIDTH 29 0
BBX 1 1 0 0
BITMAP
00
ENDCHAR
STARTCHAR Uring
ENCODING 366
SWIDTH 450 0
DWIDTH 29 0
BBX 1 1 0 0
BITMAP
00
ENDCHAR
STARTCHAR uring
ENCODING 367
SWIDTH 450 0
DWIDTH 29 0
BBX 1 1 0 0
BITMAP
00
ENDCHAR
STARTCHAR Uhungarumlaut
ENCODING 368
SWIDTH 450 0
DWIDTH 29 0
BBX 1 1 0 0
BITMAP
00
ENDCHAR
STARTCHAR uhungarumlaut
ENCODING 369
SWIDTH 450 0
DWIDTH 29 0
BBX 1 1 0 0
BITMAP
00
ENDCHAR
STARTCHAR Uogonek
ENCODING 370
SWIDTH 450 0
DWIDTH 29 0
BBX 1 1 0 0
BITMAP
00
ENDCHAR
STARTCHAR uogonek
ENCODING 371
SWIDTH 450 0
DWIDTH 29 0
BBX 1 1 0 0
BITMAP
00
ENDCHAR
STARTCHAR Wcircumflex
ENCODING 372
SWIDTH 450 0
DWIDTH 29 0
BBX 1 1 0 0
BITMAP
00
ENDCHAR
STARTCHAR wcircumflex
ENCODING 373
SWIDTH 450 0
DWIDTH 29 0
BBX 1 1 0 0
BITMAP
00
ENDCHAR
STARTCHAR Ycircumflex
ENCODING 374
SWIDTH 450 0
DWIDTH 29 0
BBX 1 1 0 0
BITMAP
00
ENDCHAR
STARTCHAR ycircumflex
ENCODING 375
SWIDTH 450 0
DWIDTH 29 0
BBX 1 1 0 0
BITMAP
00
ENDCHAR
STARTCHAR Ydieresis
ENCODING 376
SWIDTH 450 0
DWIDTH 29 0
BBX 1 1 0 0
BITMAP
00
ENDCHAR
STARTCHAR Zacute
ENCODING 377
SWIDTH 450 0
DWIDTH 29 0
BBX 1 1 0 0
BITMAP
00
ENDCHAR
STARTCHAR zacute
ENCODING 378
SWIDTH 450 0
DWIDTH 29 0
BBX 1 1 0 0
BITMAP
00
ENDCHAR
STARTCHAR Zdotaccent
ENCODING 379
SWIDTH 450 0
DWIDTH 29 0
BBX 1 1 0 0
BITMAP
00
ENDCHAR
STARTCHAR zdotaccent
ENCODING 380
SWIDTH 450 0
DWIDTH 29 0
BBX 1 1 0 0
BITMAP
00
ENDCHAR
STARTCHAR Zcaron
ENCODING 381
SWIDTH 450 0
DWIDTH 29 0
BBX 1 1 0 0
BITMAP
00
ENDCHAR
STARTCHAR zcaron
ENCODING 382
SWIDTH 450 0
DWIDTH 29 0
BBX 1 1 0 0
BITMAP
00
ENDCHAR
STARTCHAR longs
ENCODING 383
SWIDTH 450 0
DWIDTH 29 0
BBX 1 1 0 0
BITMAP
00
ENDCHAR
STARTCHAR uni0180
ENCODING 384
SWIDTH 450 0
DWIDTH 29 0
BBX 1 1 0 0
BITMAP
00
ENDCHAR
STARTCHAR uni0181
ENCODING 385
SWIDTH 450 0
DWIDTH 29 0
BBX 1 1 0 0
BITMAP
00
ENDCHAR
STARTCHAR uni0182
ENCODING 386
SWIDTH 450 0
DWIDTH 29 0
BBX 1 1 0 0
BITMAP
00
ENDCHAR
STARTCHAR uni0183
ENCODING 387
SWIDTH 450 0
DWIDTH 29 0
BBX 1 1 0 0
BITMAP
00
ENDCHAR
STARTCHAR uni0184
ENCODING 388
SWIDTH 450 0
DWIDTH 29 0
BBX 1 1 0 0
BITMAP
00
ENDCHAR
STARTCHAR uni0185
ENCODING 389
SWIDTH 450 0
DWIDTH 29 0
BBX 1 1 0 0
BITMAP
00
ENDCHAR
STARTCHAR uni0186
ENCODING 390
SWIDTH 450 0
DWIDTH 29 0
BBX 1 1 0 0
BITMAP
00
ENDCHAR
STARTCHAR uni0187
ENCODING 391
SWIDTH 450 0
DWIDTH 29 0
BBX 1 1 0 0
BITMAP
00
ENDCHAR
STARTCHAR uni0188
ENCODING 392
SWIDTH 450 0
DWIDTH 29 0
BBX 1 1 0 0
BITMAP
00
ENDCHAR
STARTCHAR uni0189
ENCODING 393
SWIDTH 450 0
DWIDTH 29 0
BBX 1 1 0 0
BITMAP
00
ENDCHAR
STARTCHAR uni018A
ENCODING 394
SWIDTH 450 0
DWIDTH 29 0
BBX 1 1 0 0
BITMAP
00
ENDCHAR
STARTCHAR uni018B
ENCODING 395
SWIDTH 450 0
DWIDTH 29 0
BBX 1 1 0 0
BITMAP
00
ENDCHAR
STARTCHAR uni018C
ENCODING 396
SWIDTH 450 0
DWIDTH 29 0
BBX 1 1 0 0
BITMAP
00
ENDCHAR
STARTCHAR uni018D
ENCODING 397
SWIDTH 450 0
DWIDTH 29 0
BBX 1 1 0 0
BITMAP
00
ENDCHAR
STARTCHAR uni018E
ENCODING 398
SWIDTH 450 0
DWIDTH 29 0
BBX 1 1 0 0
BITMAP
00
ENDCHAR
STARTCHAR uni018F
ENCODING 399
SWIDTH 450 0
DWIDTH 29 0
BBX 1 1 0 0
BITMAP
00
ENDCHAR
STARTCHAR uni0190
ENCODING 400
SWIDTH 450 0
DWIDTH 29 0
BBX 1 1 0 0
BITMAP
00
ENDCHAR
STARTCHAR uni0191
ENCODING 401
SWIDTH 450 0
DWIDTH 29 0
BBX 1 1 0 0
BITMAP
00
ENDCHAR
STARTCHAR florin
ENCODING 402
SWIDTH 450 0
DWIDTH 29 0
BBX 1 1 0 0
BITMAP
00
ENDCHAR
STARTCHAR uni0193
ENCODING 403
SWIDTH 450 0
DWIDTH 29 0
BBX 1 1 0 0
BITMAP
00
ENDCHAR
STARTCHAR uni0194
ENCODING 404
SWIDTH 450 0
DWIDTH 29 0
BBX 1 1 0 0
BITMAP
00
ENDCHAR
STARTCHAR uni0195
ENCODING 405
SWIDTH 450 0
DWIDTH 29 0
BBX 1 1 0 0
BITMAP
00
ENDCHAR
STARTCHAR uni0196
ENCODING 406
SWIDTH 450 0
DWIDTH 29 0
BBX 1 1 0 0
BITMAP
00
ENDCHAR
STARTCHAR uni0197
ENCODING 407
SWIDTH 450 0
DWIDTH 29 0
BBX 1 1 0 0
BITMAP
00
ENDCHAR
STARTCHAR uni0198
ENCODING 408
SWIDTH 450 0
DWIDTH 29 0
BBX 1 1 0 0
BITMAP
00
ENDCHAR
STARTCHAR uni0199
ENCODING 409
SWIDTH 450 0
DWIDTH 29 0
BBX 1 1 0 0
BITMAP
00
ENDCHAR
STARTCHAR uni019A
ENCODING 410
SWIDTH 450 0
DWIDTH 29 0
BBX 1 1 0 0
BITMAP
00
ENDCHAR
STARTCHAR uni019B
ENCODING 411
SWIDTH 450 0
DWIDTH 29 0
BBX 1 1 0 0
BITMAP
00
ENDCHAR
STARTCHAR uni019C
ENCODING 412
SWIDTH 450 0
DWIDTH 29 0
BBX 1 1 0 0
BITMAP
00
ENDCHAR
STARTCHAR uni019D
ENCODING 413
SWIDTH 450 0
DWIDTH 29 0
BBX 1 1 0 0
BITMAP
00
ENDCHAR
STARTCHAR uni019E
ENCODING 414
SWIDTH 450 0
DWIDTH 29 0
BBX 1 1 0 0
BITMAP
00
ENDCHAR
STARTCHAR uni019F
ENCODING 415
SWIDTH 450 0
DWIDTH 29 0
BBX 1 1 0 0
BITMAP
00
ENDCHAR
STARTCHAR Ohorn
ENCODING 416
SWIDTH 450 0
DWIDTH 29 0
BBX 1 1 0 0
BITMAP
00
ENDCHAR
STARTCHAR ohorn
ENCODING 417
SWIDTH 450 0
DWIDTH 29 0
BBX 1 1 0 0
BITMAP
00
ENDCHAR
STARTCHAR uni01A2
ENCODING 418
SWIDTH 450 0
DWIDTH 29 0
BBX 1 1 0 0
BITMAP
00
ENDCHAR
STARTCHAR uni01A3
ENCODING 419
SWIDTH 450 0
DWIDTH 29 0
BBX 1 1 0 0
BITMAP
00
ENDCHAR
STARTCHAR uni01A4
ENCODING 420
SWIDTH 450 0
DWIDTH 29 0
BBX 1 1 0 0
BITMAP
00
ENDCHAR
STARTCHAR uni01A5
ENCODING 421
SWIDTH 450 0
DWIDTH 29 0
BBX 1 1 0 0
BITMAP
00
ENDCHAR
STARTCHAR uni01A6
ENCODING 422
SWIDTH 450 0
DWIDTH 29 0
BBX 1 1 0 0
BITMAP
00
ENDCHAR
STARTCHAR uni01A7
ENCODING 423
SWIDTH 450 0
DWIDTH 29 0
BBX 1 1 0 0
BITMAP
00
ENDCHAR
STARTCHAR uni01A8
ENCODING 424
SWIDTH 450 0
DWIDTH 29 0
BBX 1 1 0 0
BITMAP
00
ENDCHAR
STARTCHAR uni01A9
ENCODING 425
SWIDTH 450 0
DWIDTH 29 0
BBX 1 1 0 0
BITMAP
00
ENDCHAR
STARTCHAR uni01AA
ENCODING 426
SWIDTH 450 0
DWIDTH 29 0
BBX 1 1 0 0
BITMAP
00
ENDCHAR
STARTCHAR uni01AB
ENCODING 427
SWIDTH 450 0
DWIDTH 29 0
BBX 1 1 0 0
BITMAP
00
ENDCHAR
STARTCHAR uni01AC
ENCODING 428
SWIDTH 450 0
DWIDTH 29 0
BBX 1 1 0 0
BITMAP
00
ENDCHAR
STARTCHAR uni01AD
ENCODING 429
SWIDTH 450 0
DWIDTH 29 0
BBX 1 1 0 0
BITMAP
00
ENDCHAR
STARTCHAR uni01AE
ENCODING 430
SWIDTH 450 0
DWIDTH 29 0
BBX 1 1 0 0
BITMAP
00
ENDCHAR
STARTCHAR Uhorn
ENCODING 431
SWIDTH 450 0
DWIDTH 29 0
BBX 1 1 0 0
BITMAP
00
ENDCHAR
STARTCHAR uhorn
ENCODING 432
SWIDTH 450 0
DWIDTH 29 0
BBX 1 1 0 0
BITMAP
00
ENDCHAR
STARTCHAR uni01B1
ENCODING 433
SWIDTH 450 0
DWIDTH 29 0
BBX 1 1 0 0
BITMAP
00
ENDCHAR
STARTCHAR uni01B2
ENCODING 434
SWIDTH 450 0
DWIDTH 29 0
BBX 1 1 0 0
BITMAP
00
ENDCHAR
STARTCHAR uni01B3
ENCODING 435
SWIDTH 450 0
DWIDTH 29 0
BBX 1 1 0 0
BITMAP
00
ENDCHAR
STARTCHAR uni01B4
ENCODING 436
SWIDTH 450 0
DWIDTH 29 0
BBX 1 1 0 0
BITMAP
00
ENDCHAR
STARTCHAR uni01B5
ENCODING 437
SWIDTH 450 0
DWIDTH 29 0
BBX 1 1 0 0
BITMAP
00
ENDCHAR
STARTCHAR uni01B6
ENCODING 438
SWIDTH 450 0
DWIDTH 29 0
BBX 1 1 0 0
BITMAP
00
ENDCHAR
STARTCHAR uni01B7
ENCODING 439
SWIDTH 450 0
DWIDTH 29 0
BBX 1 1 0 0
BITMAP
00
ENDCHAR
STARTCHAR uni01B8
ENCODING 440
SWIDTH 450 0
DWIDTH 29 0
BBX 1 1 0 0
BITMAP
00
ENDCHAR
STARTCHAR uni01B9
ENCODING 441
SWIDTH 450 0
DWIDTH 29 0
BBX 1 1 0 0
BITMAP
00
ENDCHAR
STARTCHAR uni01BA
ENCODING 442
SWIDTH 450 0
DWIDTH 29 0
BBX 1 1 0 0
BITMAP
00
ENDCHAR
STARTCHAR uni01BB
ENCODING 443
SWIDTH 450 0
DWIDTH 29 0
BBX 1 1 0 0
BITMAP
00
ENDCHAR
STARTCHAR uni01BC
ENCODING 444
SWIDTH 450 0
DWIDTH 29 0
BBX 1 1 0 0
BITMAP
00
ENDCHAR
STARTCHAR uni01BD
ENCODING 445
SWIDTH 450 0
DWIDTH 29 0
BBX 1 1 0 0
BITMAP
00
ENDCHAR
STARTCHAR uni01BE
ENCODING 446
SWIDTH 450 0
DWIDTH 29 0
BBX 1 1 0 0
BITMAP
00
ENDCHAR
STARTCHAR uni01BF
ENCODING 447
SWIDTH 450 0
DWIDTH 29 0
BBX 1 1 0 0
BITMAP
00
ENDCHAR
STARTCHAR uni01C0
ENCODING 448
SWIDTH 450 0
DWIDTH 29 0
BBX 1 1 0 0
BITMAP
00
ENDCHAR
STARTCHAR uni01C1
ENCODING 449
SWIDTH 450 0
DWIDTH 29 0
BBX 1 1 0 0
BITMAP
00
ENDCHAR
STARTCHAR uni01C2
ENCODING 450
SWIDTH 450 0
DWIDTH 29 0
BBX 1 1 0 0
BITMAP
00
ENDCHAR
STARTCHAR uni01C3
ENCODING 451
SWIDTH 450 0
DWIDTH 29 0
BBX 1 1 0 0
BITMAP
00
ENDCHAR
STARTCHAR uni01C4
ENCODING 452
SWIDTH 450 0
DWIDTH 29 0
BBX 1 1 0 0
BITMAP
00
ENDCHAR
STARTCHAR uni01C5
ENCODING 453
SWIDTH 450 0
DWIDTH 29 0
BBX 1 1 0 0
BITMAP
00
ENDCHAR
STARTCHAR uni01C6
ENCODING 454
SWIDTH 450 0
DWIDTH 29 0
BBX 1 1 0 0
BITMAP
00
ENDCHAR
STARTCHAR uni01C7
ENCODING 455
SWIDTH 450 0
DWIDTH 29 0
BBX 1 1 0 0
BITMAP
00
ENDCHAR
STARTCHAR uni01C8
ENCODING 456
SWIDTH 450 0
DWIDTH 29 0
BBX 1 1 0 0
BITMAP
00
ENDCHAR
STARTCHAR uni01C9
ENCODING 457
SWIDTH 450 0
DWIDTH 29 0
BBX 1 1 0 0
BITMAP
00
ENDCHAR
STARTCHAR uni01CA
ENCODING 458
SWIDTH 450 0
DWIDTH 29 0
BBX 1 1 0 0
BITMAP
00
ENDCHAR
STARTCHAR uni01CB
ENCODING 459
SWIDTH 450 0
DWIDTH 29 0
BBX 1 1 0 0
BITMAP
00
ENDCHAR
STARTCHAR uni01CC
ENCODING 460
SWIDTH 450 0
DWIDTH 29 0
BBX 1 1 0 0
BITMAP
00
ENDCHAR
STARTCHAR uni01CD
ENCODING 461
SWIDTH 450 0
DWIDTH 29 0
BBX 1 1 0 0
BITMAP
00
ENDCHAR
STARTCHAR uni01CE
ENCODING 462
SWIDTH 450 0
DWIDTH 29 0
BBX 1 1 0 0
BITMAP
00
ENDCHAR
STARTCHAR uni01CF
ENCODING 463
SWIDTH 450 0
DWIDTH 29 0
BBX 1 1 0 0
BITMAP
00
ENDCHAR
STARTCHAR uni01D0
ENCODING 464
SWIDTH 450 0
DWIDTH 29 0
BBX 1 1 0 0
BITMAP
00
ENDCHAR
STARTCHAR uni01D1
ENCODING 465
SWIDTH 450 0
DWIDTH 29 0
BBX 1 1 0 0
BITMAP
00
ENDCHAR
STARTCHAR uni01D2
ENCODING 466
SWIDTH 450 0
DWIDTH 29 0
BBX 1 1 0 0
BITMAP
00
ENDCHAR
STARTCHAR uni01D3
ENCODING 467
SWIDTH 450 0
DWIDTH 29 0
BBX 1 1 0 0
BITMAP
00
ENDCHAR
STARTCHAR uni01D4
ENCODING 468
SWIDTH 450 0
DWIDTH 29 0
BBX 1 1 0 0
BITMAP
00
ENDCHAR
STARTCHAR uni01D5
ENCODING 469
SWIDTH 450 0
DWIDTH 29 0
BBX 1 1 0 0
BITMAP
00
ENDCHAR
STARTCHAR uni01D6
ENCODING 470
SWIDTH 450 0
DWIDTH 29 0
BBX 1 1 0 0
BITMAP
00
ENDCHAR
STARTCHAR uni01D7
ENCODING 471
SWIDTH 450 0
DWIDTH 29 0
BBX 1 1 0 0
BITMAP
00
ENDCHAR
STARTCHAR uni01D8
ENCODING 472
SWIDTH 450 0
DWIDTH 29 0
BBX 1 1 0 0
BITMAP
00
ENDCHAR
STARTCHAR uni01D9
ENCODING 473
SWIDTH 450 0
DWIDTH 29 0
BBX 1 1 0 0
BITMAP
00
ENDCHAR
STARTCHAR uni01DA
ENCODING 474
SWIDTH 450 0
DWIDTH 29 0
BBX 1 1 0 0
BITMAP
00
ENDCHAR
STARTCHAR uni01DB
ENCODING 475
SWIDTH 450 0
DWIDTH 29 0
BBX 1 1 0 0
BITMAP
00
ENDCHAR
STARTCHAR uni01DC
ENCODING 476
SWIDTH 450 0
DWIDTH 29 0
BBX 1 1 0 0
BITMAP
00
ENDCHAR
STARTCHAR uni01DD
ENCODING 477
SWIDTH 450 0
DWIDTH 29 0
BBX 1 1 0 0
BITMAP
00
ENDCHAR
STARTCHAR uni01DE
ENCODING 478
SWIDTH 450 0
DWIDTH 29 0
BBX 1 1 0 0
BITMAP
00
ENDCHAR
STARTCHAR uni01DF
ENCODING 479
SWIDTH 450 0
DWIDTH 29 0
BBX 1 1 0 0
BITMAP
00
ENDCHAR
STARTCHAR uni01E0
ENCODING 480
SWIDTH 450 0
DWIDTH 29 0
BBX 1 1 0 0
BITMAP
00
ENDCHAR
STARTCHAR uni01E1
ENCODING 481
SWIDTH 450 0
DWIDTH 29 0
BBX 1 1 0 0
BITMAP
00
ENDCHAR
STARTCHAR uni01E2
ENCODING 482
SWIDTH 450 0
DWIDTH 29 0
BBX 1 1 0 0
BITMAP
00
ENDCHAR
STARTCHAR uni01E3
ENCODING 483
SWIDTH 450 0
DWIDTH 29 0
BBX 1 1 0 0
BITMAP
00
ENDCHAR
STARTCHAR uni01E4
ENCODING 484
SWIDTH 450 0
DWIDTH 29 0
BBX 1 1 0 0
BITMAP
00
ENDCHAR
STARTCHAR uni01E5
ENCODING 485
SWIDTH 450 0
DWIDTH 29 0
BBX 1 1 0 0
BITMAP
00
ENDCHAR
STARTCHAR Gcaron
ENCODING 486
SWIDTH 450 0
DWIDTH 29 0
BBX 1 1 0 0
BITMAP
00
ENDCHAR
STARTCHAR gcaron
ENCODING 487
SWIDTH 450 0
DWIDTH 29 0
BBX 1 1 0 0
BITMAP
00
ENDCHAR
STARTCHAR uni01E8
ENCODING 488
SWIDTH 450 0
DWIDTH 29 0
BBX 1 1 0 0
BITMAP
00
ENDCHAR
STARTCHAR uni01E9
ENCODING 489
SWIDTH 450 0
DWIDTH 29 0
BBX 1 1 0 0
BITMAP
00
ENDCHAR
STARTCHAR uni01EA
ENCODING 490
SWIDTH 450 0
DWIDTH 29 0
BBX 1 1 0 0
BITMAP
00
ENDCHAR
STARTCHAR uni01EB
ENCODING 491
SWIDTH 450 0
DWIDTH 29 0
BBX 1 1 0 0
BITMAP
00
ENDCHAR
STARTCHAR uni01EC
ENCODING 492
SWIDTH 450 0
DWIDTH 29 0
BBX 1 1 0 0
BITMAP
00
ENDCHAR
STARTCHAR uni01ED
ENCODING 493
SWIDTH 450 0
DWIDTH 29 0
BBX 1 1 0 0
BITMAP
00
ENDCHAR
STARTCHAR uni01EE
ENCODING 494
SWIDTH 450 0
DWIDTH 29 0
BBX 1 1 0 0
BITMAP
00
ENDCHAR
STARTCHAR uni01EF
ENCODING 495
SWIDTH 450 0
DWIDTH 29 0
BBX 1 1 0 0
BITMAP
00
ENDCHAR
STARTCHAR uni01F0
ENCODING 496
SWIDTH 450 0
DWIDTH 29 0
BBX 1 1 0 0
BITMAP
00
ENDCHAR
STARTCHAR uni01F1
ENCODING 497
SWIDTH 450 0
DWIDTH 29 0
BBX 1 1 0 0
BITMAP
00
ENDCHAR
STARTCHAR uni01F2
ENCODING 498
SWIDTH 450 0
DWIDTH 29 0
BBX 1 1 0 0
BITMAP
00
ENDCHAR
STARTCHAR uni01F3
ENCODING 499
SWIDTH 450 0
DWIDTH 29 0
BBX 1 1 0 0
BITMAP
00
ENDCHAR
STARTCHAR uni01F4
ENCODING 500
SWIDTH 450 0
DWIDTH 29 0
BBX 1 1 0 0
BITMAP
00
ENDCHAR
STARTCHAR uni01F5
ENCODING 501
SWIDTH 450 0
DWIDTH 29 0
BBX 1 1 0 0
BITMAP
00
ENDCHAR
STARTCHAR uni01F6
ENCODING 502
SWIDTH 450 0
DWIDTH 29 0
BBX 1 1 0 0
BITMAP
00
ENDCHAR
STARTCHAR uni01F7
ENCODING 503
SWIDTH 450 0
DWIDTH 29 0
BBX 1 1 0 0
BITMAP
00
ENDCHAR
STARTCHAR uni01F8
ENCODING 504
SWIDTH 450 0
DWIDTH 29 0
BBX 1 1 0 0
BITMAP
00
ENDCHAR
STARTCHAR uni01F9
ENCODING 505
SWIDTH 450 0
DWIDTH 29 0
BBX 1 1 0 0
BITMAP
00
ENDCHAR
STARTCHAR Aringacute
ENCODING 506
SWIDTH 450 0
DWIDTH 29 0
BBX 1 1 0 0
BITMAP
00
ENDCHAR
STARTCHAR aringacute
ENCODING 507
SWIDTH 450 0
DWIDTH 29 0
BBX 1 1 0 0
BITMAP
00
ENDCHAR
STARTCHAR AEacute
ENCODING 508
SWIDTH 450 0
DWIDTH 29 0
BBX 1 1 0 0
BITMAP
00
ENDCHAR
STARTCHAR aeacute
ENCODING 509
SWIDTH 450 0
DWIDTH 29 0
BBX 1 1 0 0
BITMAP
00
ENDCHAR
STARTCHAR Oslashacute
ENCODING 510
SWIDTH 450 0
DWIDTH 29 0
BBX 1 1 0 0
BITMAP
00
ENDCHAR
STARTCHAR oslashacute
ENCODING 511
SWIDTH 450 0
DWIDTH 29 0
BBX 1 1 0 0
BITMAP
00
ENDCHAR
STARTCHAR uni0200
ENCODING 512
SWIDTH 450 0
DWIDTH 29 0
BBX 1 1 0 0
BITMAP
00
ENDCHAR
STARTCHAR uni0201
ENCODING 513
SWIDTH 450 0
DWIDTH 29 0
BBX 1 1 0 0
BITMAP
00
ENDCHAR
STARTCHAR uni0202
ENCODING 514
SWIDTH 450 0
DWIDTH 29 0
BBX 1 1 0 0
BITMAP
00
ENDCHAR
STARTCHAR uni0203
ENCODING 515
SWIDTH 450 0
DWIDTH 29 0
BBX 1 1 0 0
BITMAP
00
ENDCHAR
STARTCHAR uni0204
ENCODING 516
SWIDTH 450 0
DWIDTH 29 0
BBX 1 1 0 0
BITMAP
00
ENDCHAR
STARTCHAR uni0205
ENCODING 517
SWIDTH 450 0
DWIDTH 29 0
BBX 1 1 0 0
BITMAP
00
ENDCHAR
STARTCHAR uni0206
ENCODING 518
SWIDTH 450 0
DWIDTH 29 0
BBX 1 1 0 0
BITMAP
00
ENDCHAR
STARTCHAR uni0207
ENCODING 519
SWIDTH 450 0
DWIDTH 29 0
BBX 1 1 0 0
BITMAP
00
ENDCHAR
STARTCHAR uni0208
ENCODING 520
SWIDTH 450 0
DWIDTH 29 0
BBX 1 1 0 0
BITMAP
00
ENDCHAR
STARTCHAR uni0209
ENCODING 521
SWIDTH 450 0
DWIDTH 29 0
BBX 1 1 0 0
BITMAP
00
ENDCHAR
STARTCHAR uni020A
ENCODING 522
SWIDTH 450 0
DWIDTH 29 0
BBX 1 1 0 0
BITMAP
00
ENDCHAR
STARTCHAR uni020B
ENCODING 523
SWIDTH 450 0
DWIDTH 29 0
BBX 1 1 0 0
BITMAP
00
ENDCHAR
STARTCHAR uni020C
ENCODING 524
SWIDTH 450 0
DWIDTH 29 0
BBX 1 1 0 0
BITMAP
00
ENDCHAR
STARTCHAR uni020D
ENCODING 525
SWIDTH 450 0
DWIDTH 29 0
BBX 1 1 0 0
BITMAP
00
ENDCHAR
STARTCHAR uni020E
ENCODING 526
SWIDTH 450 0
DWIDTH 29 0
BBX 1 1 0 0
BITMAP
00
ENDCHAR
STARTCHAR uni020F
ENCODING 527
SWIDTH 450 0
DWIDTH 29 0
BBX 1 1 0 0
BITMAP
00
ENDCHAR
STARTCHAR uni0210
ENCODING 528
SWIDTH 450 0
DWIDTH 29 0
BBX 1 1 0 0
BITMAP
00
ENDCHAR
STARTCHAR uni0211
ENCODING 529
SWIDTH 450 0
DWIDTH 29 0
BBX 1 1 0 0
BITMAP
00
ENDCHAR
STARTCHAR uni0212
ENCODING 530
SWIDTH 450 0
DWIDTH 29 0
BBX 1 1 0 0
BITMAP
00
ENDCHAR
STARTCHAR uni0213
ENCODING 531
SWIDTH 450 0
DWIDTH 29 0
BBX 1 1 0 0
BITMAP
00
ENDCHAR
STARTCHAR uni0214
ENCODING 532
SWIDTH 450 0
DWIDTH 29 0
BBX 1 1 0 0
BITMAP
00
ENDCHAR
STARTCHAR uni0215
ENCODING 533
SWIDTH 450 0
DWIDTH 29 0
BBX 1 1 0 0
BITMAP
00
ENDCHAR
STARTCHAR uni0216
ENCODING 534
SWIDTH 450 0
DWIDTH 29 0
BBX 1 1 0 0
BITMAP
00
ENDCHAR
STARTCHAR uni0217
ENCODING 535
SWIDTH 450 0
DWIDTH 29 0
BBX 1 1 0 0
BITMAP
00
ENDCHAR
STARTCHAR Scommaaccent
ENCODING 536
SWIDTH 450 0
DWIDTH 29 0
BBX 1 1 0 0
BITMAP
00
ENDCHAR
STARTCHAR scommaaccent
ENCODING 537
SWIDTH 450 0
DWIDTH 29 0
BBX 1 1 0 0
BITMAP
00
ENDCHAR
STARTCHAR uni021A
ENCODING 538
SWIDTH 450 0
DWIDTH 29 0
BBX 1 1 0 0
BITMAP
00
ENDCHAR
STARTCHAR uni021B
ENCODING 539
SWIDTH 450 0
DWIDTH 29 0
BBX 1 1 0 0
BITMAP
00
ENDCHAR
STARTCHAR uni021C
ENCODING 540
SWIDTH 450 0
DWIDTH 29 0
BBX 1 1 0 0
BITMAP
00
ENDCHAR
STARTCHAR uni021D
ENCODING 541
SWIDTH 450 0
DWIDTH 29 0
BBX 1 1 0 0
BITMAP
00
ENDCHAR
STARTCHAR uni021E
ENCODING 542
SWIDTH 450 0
DWIDTH 29 0
BBX 1 1 0 0
BITMAP
00
ENDCHAR
STARTCHAR uni021F
ENCODING 543
SWIDTH 450 0
DWIDTH 29 0
BBX 1 1 0 0
BITMAP
00
ENDCHAR
STARTCHAR Euro
ENCODING 8364
SWIDTH 536 0
DWIDTH 34 0
BBX 28 45 3 0
BITMAP
0003F000
000FFE00
003FFF00
007FFF80
00FFFFC0
01FFFFE0
01FC0FE0
01F807F0
03F003F0
03F003F0
03F001F0
03F00000
03F00000
03F00000
03F00000
3FFFFF00
7FFFFF00
7FFFFF00
7FFFFF00
FFFFFE00
FFFFFE00
03F00000
03F00000
03F00000
3FFFFC00
7FFFF800
7FFFF800
7FFFF800
FFFFF000
FFFFF000
03F00000
03F00000
03F00000
03F00000
03F001F0
03F003F0
03F003F0
03F807F0
01FC0FE0
01FFFFE0
00FFFFC0
007FFF80
003FFF00
000FFE00
0003F000
ENDCHAR
STARTCHAR arrowleft
ENCODING 8592
SWIDTH 720 0
DWIDTH 46 0
BBX 40 32 3 1
BITMAP
0001800000
0003C00000
0007E00000
000FF00000
001FE00000
003FC00000
007F800000
00FF000000
01FE000000
03FC000000
07F8000000
0FF0000000
1FE0000000
3FFFFFFFFF
7FFFFFFFFF
FFFFFFFFFF
FFFFFFFFFF
7FFFFFFFFF
3FFFFFFFFF
1FE0000000
0FF0000000
07F8000000
03FC000000
01FE000000
00FF000000
007F800000
003FC00000
001FE00000
000FF00000
0007E00000
0003C00000
0001800000
ENDCHAR
STARTCHAR arrowup
ENCODING 8593
SWIDTH 626 0
DWIDTH 40 0
BBX 32 40 4 -3
BITMAP
00018000
0003C000
0007E000
000FF000
001FF800
003FFC00
007FFE00
00FFFF00
01FFFF80
03FFFFC0
07FFFFE0
0FF7EFF0
1FE7E7F8
3FC7E3FC
7F87E1FE
FF07E0FF
FE07E07F
7C07E03E
3807E01C
1007E008
0007E000
0007E000
0007E000
0007E000
0007E000
0007E000
0007E000
0007E000
0007E000
0007E000
0007E000
0007E000
0007E000
0007E000
0007E000
0007E000
0007E000
0007E000
0007E000
0007E000
ENDCHAR
STARTCHAR arrowright
ENCODING 8594
SWIDTH 720 0
DWIDTH 46 0
BBX 40 32 3 1
BITMAP
0000018000
000003C000
000007E000
00000FF000
000007F800
000003FC00
000001FE00
000000FF00
0000007F80
0000003FC0
0000001FE0
0000000FF0
00000007F8
FFFFFFFFFC
FFFFFFFFFE
FFFFFFFFFF
FFFFFFFFFF
FFFFFFFFFE
FFFFFFFFFC
00000007F8
0000000FF0
0000001FE0
0000003FC0
0000007F80
000000FF00
000001FE00
000003FC00
000007F800
00000FF000
000007E000
000003C000
0000018000
ENDCHAR
STARTCHAR arrowdown
ENCODING 8595
SWIDTH 626 0
DWIDTH 40 0
BBX 32 40 4 -3
BITMAP
0007E000
0007E000
0007E000
0007E000
0007E000
0007E000
0007E000
0007E000
0007E000
0007E000
0007E000
0007E000
0007E000
0007E000
0007E000
0007E000
0007E000
0007E000
0007E000
0007E000
1007E008
3807E01C
7C07E03E
FE07E07F
FF07E0FF
7F87E1FE
3FC7E3FC
1FE7E7F8
0FF7EFF0
07FFFFE0
03FFFFC0
01FFFF80
00FFFF00
007FFE00
003FFC00
001FF800
000FF000
0007E000
0003C000
00018000
ENDCHAR
STARTCHAR uni2196
ENCODING 8598
SWIDTH 574 0
DWIDTH 37 0
BBX 31 30 3 1
BITMAP
FFFFFE00
FFFFFE00
FFFFFE00
FFFFFE00
FFFFFE00
FFC00000
FFE00000
FFF00000
FFF80000
FFFC0000
FDFE0000
FCFF0000
FC7F8000
FC3FC000
FC1FE000
FC0FF000
FC07F800
FC03FC00
FC01FE00
FC00FF00
FC007F80
FC003FC0
FC001FE0
00000FF0
000007F8
000003FC
000001FE
000000FC
00000078
00000030
ENDCHAR
STARTCHAR uni2197
ENCODING 8599
SWIDTH 574 0
DWIDTH 37 0
BBX 31 30 3 1
BITMAP
01FFFFFE
01FFFFFE
01FFFFFE
01FFFFFE
01FFFFFE
000007FE
00000FFE
00001FFE
00003FFE
00007FFE
0000FF7E
0001FE7E
0003FC7E
0007F87E
000FF07E
001FE07E
003FC07E
007F807E
00FF007E
01FE007E
03FC007E
07F8007E
0FF0007E
1FE00000
3FC00000
7F800000
FF000000
7E000000
3C000000
18000000
ENDCHAR
STARTCHAR uni2198
ENCODING 8600
SWIDTH 570 0
DWIDTH 36 0
BBX 31 30 3 0
BITMAP
18000000
3C000000
7E000000
FF000000
7F800000
3FC00000
1FE00000
0FF0007E
07F8007E
03FC007E
01FE007E
00FF007E
007F807E
003FC07E
001FE07E
000FF07E
0007F87E
0003FC7E
0001FE7E
0000FF7E
00007FFE
00003FFE
00001FFE
00000FFE
000007FE
01FFFFFE
01FFFFFE
01FFFFFE
01FFFFFE
01FFFFFE
ENDCHAR
STARTCHAR uni2199
ENCODING 8601
SWIDTH 570 0
DWIDTH 36 0
BBX 30 30 3 0
BITMAP
00000030
00000078
000000FC
000001FC
000003F8
000007F0
00000FE0
F8001FC0
F8003F80
F8007F00
F800FE00
F801FC00
F803F800
F807F000
F80FE000
F81FC000
F83F8000
F87F0000
F8FE0000
F9FC0000
FBF80000
FFF00000
FFE00000
FFC00000
FF800000
FFFFFE00
FFFFFE00
FFFFFE00
FFFFFE00
FFFFFE00
ENDCHAR
STARTCHAR uni26DF
ENCODING 9951
SWIDTH 2667 0
DWIDTH 171 0
BBX 165 45 3 0
BITMAP
FFFFFFFFFFFFFFFFFFFFFFFFFFFFFFFFFC00000000
FFFFFFFFFFFFFFFFFFFFFFFFFFFFFFFFFC00000000
FFFFFFFFFFFFFFFFFFFFFFFFFFFFFFFFFC0FFC0000
FFFFFFFFFFFFFFFFFFFFFFFFFFFFFFFFFC1FFF8000
FFFFFFFFFFFFFFFFFFFFFFFFFFFFFFFFFC1FFFE000
FFFFFFFFFFFFFFFFFFFFFFFFFFFFFFFFFC1FFFF000
FFFFFFFFFFFFFFFFFFFFFFFFFFFFFFFFFC3FFFF800
FFFFFFFFFFFFFFFFFFFFFFFFFFFFFFFFFC3FFFFF80
FFFFFFFFFFFFFFFFFFFFFFFFFFFFFFFFFC3FFFFFE0
FFFFFFFFFFFFFFFFFFFFFFFFFFFFFFFFFC3FFFFFF0
FFFFFFFFFFFFFFFFFFFFFFFFFFFFFFFFFC3FFFFFF0
FFFFFFFFFFFFFFFFFFFFFFFFFFFFFFFFFC3FFC00C0
FFFFFFFFFFFFFFFFFFFFFFFFFFFFFFFFFC3FFC00C0
FFFFFFFFFFFFFFFFFFFFFFFFFFFFFFFFFC3FFC00C0
FFFFFFFFFFFFFFFFFFFFFFFFFFFFFFFFFC3FFC00C0
FFFFFFFFFFFFFFFFFFFFFFFFFFFFFFFFFC3FFC00C0
FFFFFFFFFFFFFFFFFFFFFFFFFFFFFFFFFC3FFC00C0
FFFFFFFFFFFFFFFFFFFFFFFFFFFFFFFFFC3FFC00C0
FFFFFFFFFFFFFFFFFFFFFFFFFFFFFFFFFC3FFC00C0
FFFFFFFFFFFFFFFFFFFFFFFFFFFFFFFFFC3FFC00C0
FFFFFFFFFFFFFFFFFFFFFFFFFFFFFFFFFC3FFC00C0
FFFFFFFFFFFFFFFFFFFFFFFFFFFFFFFFFC3FFC00C0
FFFFFFFFFFFFFFFFFFFFFFFFFFFFFFFFFF3FFFFFF8
FFFFFFFFFFFFFFFFFFFFFFFFFFFFFFFFFF3FFFFFF8
FFFFFFFFFFFFFFFFFFFFFFFFFFFFFFFFFF3FFFFFF8
FFFFFFFFFFFFFFFFFFFFFFFFFFFFFFFFFF3FFFFFF8
FFFFFFFFFFFFFFFFFFFFFFFFFFFFFFFFFF3FFFFFF8
FFFFFFFFFFFFFFFFFFFFFFFFFFFFFFFFFF3FFFFFF8
FFFFFFFFFFFFFFFFFFFFFFFFFFFFFFFFFF1FFFFFE0
FFFFFFFFFFFFFFFFFFFFFFFFFFFFFFFFFF1FFFFFE0
FFFFFFFFFFFFFFFFFFFFFFFFFFFFFFFFFF3FFFFFF0
FFFFFFFFFFFFFFFFFFFFFFFFFFFFFFFFFE3FFFFFF8
F8000000000000000000000000000000003FFFFFF8
000000000000000000000000000C0F80003FFFFFF8
0001FC03F80FE00000000000007F8F80003FFF1FF8
000303040C1810000000000000C0FFFFFFFFFC07F8
00067909F637C80000000000019E7FFFFFFFF9F3F8
0005FC93FA2FE40000000000017F3FFFFFFFF3F9F8
000DFE97F94FF40000000000037FBFFFFFFFF7FDF8
000BFE57FD5FF4000000000002FF9FFFFFFFF7FDF0
000BFE77FD5FF6000000000002FF9FFFFFFFF7FDF0
0001FE07FC1FF00000000000007F8000000007FC00
0001FE07F80FF00000000000007F8000000003FC00
0000FC03F807E00000000000003F0000000003F800
00007800E003800000000000001E0000000000E000
ENDCHAR
STARTCHAR uni2794
ENCODING 10132
SWIDTH 720 0
DWIDTH 46 0
BBX 40 32 3 1
BITMAP
0000018000
000003C000
000007E000
00000FF000
000007F800
000003FC00
000001FE00
000000FF00
0000007F80
0000003FC0
0000001FE0
0000000FF0
00000007F8
FFFFFFFFFC
FFFFFFFFFE
FFFFFFFFFF
FFFFFFFFFF
FFFFFFFFFE
FFFFFFFFFC
00000007F8
0000000FF0
0000001FE0
0000003FC0
0000007F80
000000FF00
000001FE00
000003FC00
000007F800
00000FF000
000007E000
000003C000
0000018000
ENDCHAR
STARTCHAR car
ENCODING 17979
SWIDTH 984 0
DWIDTH 63 0
BBX 57 20 3 0
BITMAP
0007FFFF80000000
000F000080000000
003C000060000000
0078000030000000
01F0000008000000
03E0000004000000
0FFFFFFC07FC0000
7FFFFFFFFFFFE000
7FFFFFFFFFFFFE00
7FFFFFFFFFFFFE00
7FFFFFFFFFFE3F00
0207FFFFFFF88800
FCF3FFFFFFF7EF80
05F9FFFFFFE7F400
0BFDFFFFFFEFF400
03FDFFFFFFEFF000
03FC0000000FF000
03FC00000007F000
01F800000007E000
00F0000000018000
ENDCHAR
STARTCHAR uniE031
ENCODING 57393
SWIDTH 415 0
DWIDTH 27 0
BBX 20 37 3 0
BITMAP
003000
003000
005000
000000
000000
006000
01E000
01F000
03F400
03FC00
03FC00
03FC00
03FC00
07F800
07F800
07F800
07F800
07F800
01F800
35F800
3DF800
7F7800
7FF800
FFFC00
7FBC00
3F1C00
0F1E00
0A0E00
0E0E00
0E0F00
1C0700
1C0780
3C03C0
3803C0
0E01F0
0001F0
000180
ENDCHAR
STARTCHAR .notdef
ENCODING -1
SWIDTH 364 0
DWIDTH 23 0
BBX 17 43 2 0
BITMAP
FFFF80
FFFF80
C00180
C00180
C00180
C00180
C00180
C00180
C00180
C00180
C00180
C00180
C00180
C00180
C00180
C00180
C00180
C00180
C00180
C00180
C00180
C00180
C00180
C00180
C00180
C00180
C00180
C00180
C00180
C00180
C00180
C00180
C00180
C00180
C00180
C00180
C00180
C00180
C00180
C00180
C00180
FFFF80
FFFF80
ENDCHAR
STARTCHAR .null
ENCODING -1
SWIDTH 0 0
DWIDTH 0 0
BBX 1 1 0 0
BITMAP
00
ENDCHAR
STARTCHAR nonmarkingreturn
ENCODING -1
SWIDTH 333 0
DWIDTH 21 0
BBX 1 1 0 0
BITMAP
00
ENDCHAR
ENDFONT
